<?xml version="1.0" encoding="UTF-8" standalone="no"?>
<svg
   xmlns:dc="http://purl.org/dc/elements/1.1/"
   xmlns:cc="http://creativecommons.org/ns#"
   xmlns:rdf="http://www.w3.org/1999/02/22-rdf-syntax-ns#"
   xmlns:svg="http://www.w3.org/2000/svg"
   xmlns="http://www.w3.org/2000/svg"
   xmlns:sodipodi="http://sodipodi.sourceforge.net/DTD/sodipodi-0.dtd"
   xmlns:inkscape="http://www.inkscape.org/namespaces/inkscape"
   width="122.60682mm"
   height="110.34688mm"
   viewBox="0 0 122.60682 110.34688"
   version="1.1"
   id="svg8"
   inkscape:version="1.0.1 (3bc2e813f5, 2020-09-07)"
   sodipodi:docname="hex_shore_double.svg">
  <defs
     id="defs2">
    <inkscape:perspective
       sodipodi:type="inkscape:persp3d"
       inkscape:vp_x="0 : -38.153128 : 1"
       inkscape:vp_y="0 : 1000 : 0"
       inkscape:vp_z="210.00001 : -38.153128 : 1"
       inkscape:persp3d-origin="105.00001 : -87.653129 : 1"
       id="perspective30" />
  </defs>
  <sodipodi:namedview
     id="base"
     pagecolor="#ffffff"
     bordercolor="#666666"
     borderopacity="1.0"
     inkscape:pageopacity="0.0"
     inkscape:pageshadow="2"
     inkscape:zoom="0.60693248"
     inkscape:cx="25.849971"
     inkscape:cy="90.815834"
     inkscape:document-units="mm"
     inkscape:current-layer="layer1"
     inkscape:document-rotation="0"
     showgrid="false"
     inkscape:window-width="1709"
     inkscape:window-height="1376"
     inkscape:window-x="851"
     inkscape:window-y="27"
     inkscape:window-maximized="0"
     inkscape:snap-global="false" />
  <metadata
     id="metadata5">
    <rdf:RDF>
      <cc:Work
         rdf:about="">
        <dc:format>image/svg+xml</dc:format>
        <dc:type
           rdf:resource="http://purl.org/dc/dcmitype/StillImage" />
        <dc:title></dc:title>
      </cc:Work>
    </rdf:RDF>
  </metadata>
  <g
     inkscape:label="Layer 1"
     inkscape:groupmode="layer"
     id="layer1"
     transform="translate(-57.304571,-18.106884)">
    <path
       style="opacity:1;fill:#7089b6;fill-opacity:1;fill-rule:nonzero;stroke:none;stroke-width:0.9;stroke-linecap:round;stroke-linejoin:round;stroke-miterlimit:4;stroke-dasharray:none;stroke-dashoffset:16.6299;stroke-opacity:1;paint-order:normal"
       d="M 82.967649,121.49841 C 75.051087,107.66188 67.043694,93.8795 59.127134,80.042965 56.729363,75.889903 56.884415,70.149774 59.133234,66.250068 67.062078,52.500812 74.610883,38.79653 82.539727,25.047274 c 2.462526,-4.26522 7.361874,-6.900476 12.31921,-6.900476 l 47.826853,-0.0044 c 5.37542,-4.95e-4 9.9252,3.484859 11.92877,6.961188 l 23.59404,40.937237 c 2.48588,4.305675 2.08271,9.779192 -0.12834,13.654844 L 154.6099,121.12162 c -2.50201,4.33362 -6.79646,7.27714 -12.27517,7.27714 -16.09891,0.1264 -31.63794,-0.0683 -47.373286,0.055 -5.39657,-0.66601 -9.668717,-3.19867 -11.993795,-6.95535 z"
       id="path17930"
       sodipodi:nodetypes="cccccsccccccc" />
    <path
       style="fill:#efe4c0;fill-opacity:1;stroke:none;stroke-width:0.264583px;stroke-linecap:butt;stroke-linejoin:miter;stroke-opacity:1"
       d="m 141.47904,18.113508 c 7.59098,-0.195883 11.11317,3.998929 12.81056,6.411276 1.04269,1.481899 2.22752,3.761851 2.22752,3.761851 -12.25514,4.016004 -6.73604,-1.75812 -24.78097,-0.178282 -6.51518,0.570406 -1.49747,1.477041 -12.06619,1.524517 -7.0583,0.03171 -10.80778,-1.483324 -13.42023,0.01722 -3.83577,2.203191 -9.499985,4.490768 -13.218975,5.035408 -2.185813,0.320109 -5.409534,5.694077 -6.094017,8.507012 -2.932026,14.120561 -1.270148,9.949269 -7.825042,13.699511 -5.868431,3.357497 -5.657731,12.591114 -8.232354,13.999979 -4.916725,5.23588 0.228611,5.145929 -8.906743,14.436273 L 58.995246,80.263768 C 56.382116,73.882089 57.005113,70.09751 59.450272,65.614205 L 82.965385,24.142634 c 3.136602,-4.12867 6.490679,-5.536433 10.444532,-6.035503 z"
       id="path1412"
       sodipodi:nodetypes="cscsssscsccccccc" />
    <path
       style="fill:#f4f4f4;fill-opacity:0.547206;stroke:none;stroke-width:0.264583px;stroke-linecap:butt;stroke-linejoin:miter;stroke-opacity:1"
       d="m 89.308118,52.122392 c -0.415344,1.591048 1.88464,4.747256 -3.494876,6.68701 -0.378614,1.773089 -1.982789,3.573611 -4.991848,4.922333 -0.583755,0.904766 -0.612919,2.505006 -0.69245,4.042084 0.617797,-1.49314 0.413064,-3.741175 4.059092,-5.361544 1.777248,-2.95031 4.024832,-4.977882 5.877992,-5.069427 -1.133817,-3.416729 0.82585,-5.68736 1.56669,-8.409551 -1.43842,2.842452 -1.42291,2.064228 -2.3246,3.189095 z"
       id="path1447"
       sodipodi:nodetypes="cccccccc" />
    <path
       style="fill:#f4f4f4;fill-opacity:1;stroke:none;stroke-width:0.264583px;stroke-linecap:butt;stroke-linejoin:miter;stroke-opacity:1"
       d="m 132.50011,24.59173 c 1.77009,0.343841 2.67853,2.356269 8.00897,0.285449 1.45012,1.088282 3.84236,1.392256 6.99719,0.432783 1.03445,0.298796 2.10754,1.486275 3.17711,2.593045 -1.44658,-0.720089 -2.7688,-2.549662 -6.58234,-1.37663 -3.27798,-1.057275 -6.30452,-1.109842 -7.76199,0.03836 -4.54575,-2.98829 -5.12609,0.542069 -6.79457,0.455366 0.29517,-0.13171 1.44998,-0.492836 2.95563,-2.428373 z"
       id="path1447-6"
       sodipodi:nodetypes="cccccccc" />
    <path
       style="fill:#f4f4f4;fill-opacity:0.536309;stroke:none;stroke-width:0.264583px;stroke-linecap:butt;stroke-linejoin:miter;stroke-opacity:1"
       d="m 139.34693,30.55809 c -1.49482,0.685191 -2.48334,4.46334 -7.38944,1.525306 -1.61252,0.828833 -4.02182,0.726021 -6.97026,-0.750501 -1.06998,0.12051 -2.32754,1.110538 -3.56806,2.021603 1.54711,-0.46647 3.15827,-2.047521 6.72013,-0.249668 3.40911,-0.490761 6.40135,-0.03343 7.64491,1.34359 1.92818,-3.040004 4.92667,-2.95905 7.5031,-4.108349 -3.1112,0.684879 -2.49878,0.204441 -3.94038,0.218028 z"
       id="path1447-6-7"
       sodipodi:nodetypes="cccccccc" />
    <path
       style="fill:#f4f4f4;fill-opacity:1;stroke:none;stroke-width:0.264583px;stroke-linecap:butt;stroke-linejoin:miter;stroke-opacity:1"
       d="m 62.351039,76.253007 c 1.268364,-1.046518 5.099495,-0.288883 4.59445,-5.98509 1.448955,-1.089831 2.406875,-3.302893 2.363585,-6.600105 0.57496,-0.910382 2.01422,-1.610472 3.37499,-2.32966 -1.09433,1.188942 -3.21965,1.949564 -3.15463,5.938911 -1.928015,2.854065 -2.821043,5.746328 -2.123976,7.465832 -3.576537,0.409838 -4.811241,3.143254 -6.968621,4.961187 1.972816,-2.501314 1.273434,-2.159644 1.914202,-3.451075 z"
       id="path1447-6-7-5"
       sodipodi:nodetypes="cccccccc" />
    <path
       style="fill:#f4f4f4;fill-opacity:0.52767;stroke:none;stroke-width:0.264583px;stroke-linecap:butt;stroke-linejoin:miter;stroke-opacity:1"
       d="m 134.23233,37.561603 c 0.47596,0.01685 1.28406,2.03918 3.95615,0.027 1.65176,0.747587 1.75751,0.872963 4.62886,-0.748402 1.39779,1.957077 2.75283,1.329997 3.9086,1.426484 -4.26901,0.839064 -3.08973,-2.222462 -5.99369,1.038587 -2.86027,-1.746365 -1.85479,-0.682482 -5.56645,-0.0012 -1.18025,-1.797239 -3.56177,-1.07262 -4.15912,-0.383445 -0.0573,-0.755392 2.41374,-1.257962 3.22565,-1.358978 z"
       id="path1447-3"
       sodipodi:nodetypes="cccccccc" />
    <path
       style="fill:#f4f4f4;fill-opacity:0.5426;stroke:none;stroke-width:0.264583px;stroke-linecap:butt;stroke-linejoin:miter;stroke-opacity:1"
       d="m 95.046112,38.365071 c -1.115059,0.327558 -1.893445,1.838802 -2.665547,3.170623 0.882812,0.232195 -0.824917,2.736902 -1.02828,3.998099 0.688524,-1.058016 0.499754,-1.636201 2.133307,-3.347159 -1.577284,-0.478264 0.788085,-2.474613 1.56052,-3.821563 z"
       id="path1509"
       sodipodi:nodetypes="ccccc" />
    <path
       style="fill:#f4f4f4;fill-opacity:0.5426;stroke:none;stroke-width:0.264583px;stroke-linecap:butt;stroke-linejoin:miter;stroke-opacity:1"
       d="m 146.18821,34.658333 c 0.96724,-0.644283 2.62552,-0.270148 4.14222,-0.0065 -0.38907,0.825758 2.62754,1.12567 3.7248,1.779886 -1.25315,-0.15186 -1.57505,-0.667915 -3.93566,-0.514836 0.64654,-1.516099 -2.40285,-0.985444 -3.93136,-1.258574 z"
       id="path1509-5"
       sodipodi:nodetypes="ccccc" />
    <path
       style="fill:#f4f4f4;fill-opacity:1;stroke:none;stroke-width:0.264583px;stroke-linecap:butt;stroke-linejoin:miter;stroke-opacity:1"
       d="m 117.42158,25.593618 c -0.4762,0.008 -1.3217,2.014996 -3.95598,-0.04643 -1.66534,0.716796 -1.77341,0.840182 -4.61417,-0.834201 -1.43388,1.930792 -2.77703,1.278669 -3.9344,1.353686 4.25269,0.918168 3.13045,-2.164723 5.97337,1.149671 2.8922,-1.692971 1.86714,-0.647941 5.56552,0.102079 1.21341,-1.775021 3.58107,-1.006319 4.16552,-0.306176 0.0713,-0.754196 -2.38997,-1.302547 -3.19986,-1.418616 z"
       id="path1447-3-6"
       sodipodi:nodetypes="cccccccc" />
    <path
       style="fill:#f4f4f4;fill-opacity:0.523068;stroke:none;stroke-width:0.264583px;stroke-linecap:butt;stroke-linejoin:miter;stroke-opacity:1"
       d="m 73.739345,80.381995 c 0.237514,-0.412815 2.402967,-0.18119 1.874243,-3.484124 1.433333,-1.110285 1.593611,-1.145115 1.503513,-4.441381 2.38359,-0.320109 2.463107,-1.811094 3.088966,-2.787521 -1.255071,4.165722 -3.409507,1.691442 -1.885384,5.783443 -2.88138,1.71132 -1.470754,1.320197 -2.60465,4.919477 -2.140562,0.202584 -2.613973,2.646477 -2.28422,3.496801 -0.694468,-0.302678 0.01707,-2.721825 0.307532,-3.486695 z"
       id="path1447-3-6-2"
       sodipodi:nodetypes="cccccccc" />
    <path
       style="fill:#f4f4f4;fill-opacity:1;stroke:none;stroke-width:0.264583px;stroke-linecap:butt;stroke-linejoin:miter;stroke-opacity:1"
       d="m 76.04345,56.284382 c -0.07323,-1.159865 1.081008,-2.407851 2.068777,-3.588614 0.519915,0.750307 2.290203,-1.710582 3.405966,-2.332713 -0.759011,1.008644 -1.366897,1.028834 -2.416577,3.148751 -0.988502,-1.318872 -2.056293,1.58633 -3.058166,2.772576 z"
       id="path1509-9"
       sodipodi:nodetypes="ccccc" />
    <path
       style="fill:#ced5ef;fill-opacity:1;stroke:none;stroke-width:0.264583px;stroke-linecap:butt;stroke-linejoin:miter;stroke-opacity:1"
       d="m 147.04577,29.735179 c 2.70894,0.701141 6.80923,2.048374 10.61526,0.681864 l -1.1439,-2.130403 c -12.25515,4.016004 -6.73604,-1.75812 -24.78097,-0.178281 -6.51518,0.570406 -1.49747,1.477041 -12.06619,1.524517 -7.0583,0.03171 -10.80778,-1.483324 -13.42023,0.01722 -3.83577,2.203191 -9.499995,4.490768 -13.218975,5.035408 -2.18582,0.320109 -5.40954,5.694077 -6.09402,8.507012 -2.93203,14.120563 -1.27015,9.949269 -7.82504,13.699513 -5.86844,3.357496 -5.65774,12.591113 -8.23236,13.999977 -4.91672,5.235882 0.22861,5.145931 -8.906741,14.436275 l 1.046621,1.582277 c 1.880433,-2.119097 2.693871,-1.43242 4.078998,-6.34773 0.559684,-1.986116 2.809603,-8.136831 4.754925,-9.239728 3.910078,-2.216812 2.245309,-12.148965 8.532569,-14.467382 12.118746,-4.468767 2.995849,-10.47974 9.889281,-18.723896 3.325987,-3.977693 11.224942,-3.550016 14.415282,-5.938259 8.06275,-6.035665 7.22285,1.286097 18.51376,-1.698577 7.19004,-1.900637 15.65745,-2.21385 23.84173,-0.759807 z"
       id="path1412-8"
       sodipodi:nodetypes="cccsssscscccssssssc" />
    <path
       style="fill:#f4f4f4;fill-opacity:0.536309;stroke:none;stroke-width:0.264583px;stroke-linecap:butt;stroke-linejoin:miter;stroke-opacity:1"
       d="m 101.36619,38.037479 c 1.93894,-2.606961 3.85107,0.03033 5.71615,-4.081987 1.70609,1.466902 5.65653,3.467969 8.49754,1.794013 1.0757,0.04734 2.39778,0.949403 3.69748,1.773838 -1.57529,-0.359985 -3.2904,-1.82761 -6.72152,0.208716 -5.4735,-3.776567 -5.76444,-2.134838 -6.9113,-0.676301 -5.31387,-0.355945 -3.70073,4.504844 -4.99862,5.248628 -2.4393,1.397898 -2.77453,3.256519 -2.83831,3.838027 -0.985841,-3.452743 2.23661,-0.814295 3.55858,-8.104934 z"
       id="path1447-6-7-6"
       sodipodi:nodetypes="ccccccscc" />
    <path
       style="fill:#f4f4f4;fill-opacity:1;stroke:none;stroke-width:0.264583px;stroke-linecap:butt;stroke-linejoin:miter;stroke-opacity:1"
       d="m 91.578643,30.08929 c -3.20321,0.543307 -1.72215,3.444689 -6.23293,3.238455 0.53195,2.186221 0.52039,6.614553 -2.26133,8.385287 -0.44641,0.979843 -0.24326,2.567396 -0.0991,4.099763 0.39479,-1.566934 -0.1337,-3.761526 3.23888,-5.893389 -0.87845,-6.591661 0.71631,-6.105181 2.53662,-6.464442 2.09647,-4.895791 5.69425,-1.250862 6.94639,-2.069319 2.35332,-1.538237 4.16142,-0.992695 4.708457,-0.785401 -2.628267,-2.44653 -1.741327,1.622739 -8.836987,-0.510954 z"
       id="path1447-6-7-6-8"
       sodipodi:nodetypes="ccccccscc" />
    <path
       style="fill:#f4f4f4;fill-opacity:0.5426;stroke:none;stroke-width:0.264583px;stroke-linecap:butt;stroke-linejoin:miter;stroke-opacity:1"
       d="m 68.243156,86.452556 c -0.453646,-1.069977 0.221504,-2.630067 0.7619,-4.071546 0.739279,0.535479 1.593485,-2.373168 2.439856,-3.330054 -0.381647,1.203249 -0.948452,1.423849 -1.235866,3.771885 -1.369876,-0.916516 -1.414004,2.178389 -1.96589,3.629715 z"
       id="path1509-8"
       sodipodi:nodetypes="ccccc" />
  </g>
</svg>
