<?xml version="1.0" encoding="UTF-8" standalone="no"?>
<svg
   xmlns:dc="http://purl.org/dc/elements/1.1/"
   xmlns:cc="http://creativecommons.org/ns#"
   xmlns:rdf="http://www.w3.org/1999/02/22-rdf-syntax-ns#"
   xmlns:svg="http://www.w3.org/2000/svg"
   xmlns="http://www.w3.org/2000/svg"
   xmlns:sodipodi="http://sodipodi.sourceforge.net/DTD/sodipodi-0.dtd"
   xmlns:inkscape="http://www.inkscape.org/namespaces/inkscape"
   width="122.5242mm"
   height="110.31136mm"
   viewBox="0 0 122.5242 110.31136"
   version="1.1"
   id="svg8"
   inkscape:version="1.0.1 (3bc2e813f5, 2020-09-07)"
   sodipodi:docname="hex_water.svg">
  <defs
     id="defs2">
    <inkscape:perspective
       sodipodi:type="inkscape:persp3d"
       inkscape:vp_x="0 : -38.18864 : 1"
       inkscape:vp_y="0 : 999.99995 : 0"
       inkscape:vp_z="210.00001 : -38.18864 : 1"
       inkscape:persp3d-origin="105 : -87.688637 : 1"
       id="perspective30" />
  </defs>
  <sodipodi:namedview
     id="base"
     pagecolor="#ffffff"
     bordercolor="#666666"
     borderopacity="1.0"
     inkscape:pageopacity="0.0"
     inkscape:pageshadow="2"
     inkscape:zoom="0.98994949"
     inkscape:cx="352.6788"
     inkscape:cy="377.61556"
     inkscape:document-units="mm"
     inkscape:current-layer="layer1"
     inkscape:document-rotation="0"
     showgrid="false"
     inkscape:window-width="1709"
     inkscape:window-height="1376"
     inkscape:window-x="851"
     inkscape:window-y="27"
     inkscape:window-maximized="0"
     inkscape:snap-global="false" />
  <metadata
     id="metadata5">
    <rdf:RDF>
      <cc:Work
         rdf:about="">
        <dc:format>image/svg+xml</dc:format>
        <dc:type
           rdf:resource="http://purl.org/dc/dcmitype/StillImage" />
        <dc:title />
      </cc:Work>
    </rdf:RDF>
  </metadata>
  <g
     inkscape:label="Layer 1"
     inkscape:groupmode="layer"
     id="layer1"
     transform="translate(-57.387189,-18.142398)">
    <path
       style="opacity:1;fill:#7089b6;fill-opacity:1;fill-rule:nonzero;stroke:none;stroke-width:0.9;stroke-linecap:round;stroke-linejoin:round;stroke-miterlimit:4;stroke-dasharray:none;stroke-dashoffset:16.6299;stroke-opacity:1;paint-order:normal"
       d="M 82.967649,121.49841 C 75.051087,107.66188 67.043694,93.8795 59.127134,80.042965 56.729363,75.889903 56.884415,70.149774 59.133234,66.250068 67.062078,52.500812 74.610883,38.79653 82.539727,25.047274 c 2.462526,-4.26522 7.361874,-6.900476 12.31921,-6.900476 l 47.826853,-0.0044 c 5.37542,-4.95e-4 9.9252,3.484859 11.92877,6.961188 l 23.59404,40.937237 c 2.48588,4.305675 2.08271,9.779192 -0.12834,13.654844 L 154.6099,121.12162 c -2.50201,4.33362 -6.79646,7.27714 -12.27517,7.27714 -16.09891,0.1264 -31.63794,-0.0683 -47.373286,0.055 -5.39657,-0.66601 -9.668717,-3.19867 -11.993795,-6.95535 z"
       id="path17930"
       sodipodi:nodetypes="cccccsccccccc" />
    <path
       style="fill:#636363;fill-opacity:0.536309;stroke:none;stroke-width:0.264583px;stroke-linecap:butt;stroke-linejoin:miter;stroke-opacity:1"
       d="m 112.57107,51.326548 c 0.72994,-0.358406 1.61826,-0.632613 2.03268,-1.158764 0.64251,0.65557 1.45599,1.29198 2.48582,1.210201 0.97234,-0.07721 1.93079,-0.518288 2.46748,-1.202028 0.96139,0.398442 1.77628,1.17906 3.04052,1.106038 1.05381,-0.06087 2.31083,-0.315296 2.96846,-1.100442 0.11802,0.666792 1.31545,0.973935 2.10041,1.261507 -0.715,-0.169582 -1.43655,-0.152305 -2.22266,-0.542988 -0.99162,0.364034 -1.92064,0.518987 -2.87567,0.535217 -0.93313,0.01586 -1.80125,-0.156956 -2.99327,-0.551337 -0.75839,0.34012 -0.92925,0.652641 -2.41579,0.643776 -0.86468,-0.0052 -1.21643,0.10577 -2.54061,-0.772064 -0.80242,0.402986 -1.52034,0.434586 -2.04737,0.570884 z"
       id="path1672" />
    <path
       style="fill:#636363;fill-opacity:0.536309;stroke:none;stroke-width:0.264583px;stroke-linecap:butt;stroke-linejoin:miter;stroke-opacity:1"
       d="m 138.31774,82.884047 c 0.72994,-0.358404 1.61826,-0.632611 2.03268,-1.158764 0.64251,0.655572 1.45599,1.291982 2.48582,1.210202 0.97234,-0.07721 1.93079,-0.518287 2.46748,-1.202029 0.96139,0.398444 1.77628,1.17906 3.04052,1.106041 1.05381,-0.06087 2.31083,-0.315296 2.96846,-1.100445 0.11802,0.666793 1.31545,0.973937 2.10041,1.261507 -0.715,-0.169582 -1.43655,-0.152305 -2.22266,-0.542986 -0.99162,0.364033 -1.92064,0.518986 -2.87567,0.535215 -0.93313,0.01588 -1.80125,-0.156956 -2.99327,-0.551336 -0.75839,0.340119 -0.92925,0.652643 -2.41579,0.643776 -0.86468,-0.0052 -1.21643,0.10577 -2.54061,-0.772064 -0.80242,0.402987 -1.52034,0.434586 -2.04737,0.570883 z"
       id="path1672-9" />
    <path
       style="fill:#636363;fill-opacity:0.536309;stroke:none;stroke-width:0.264583px;stroke-linecap:butt;stroke-linejoin:miter;stroke-opacity:1"
       d="m 93.36638,92.339342 c 0.72994,-0.358405 1.61826,-0.632614 2.03268,-1.158764 0.64251,0.655569 1.45599,1.291979 2.485819,1.210202 0.97234,-0.07721 1.93079,-0.51829 2.467481,-1.202029 0.96139,0.398441 1.77628,1.17906 3.04052,1.106038 1.05381,-0.06087 2.31083,-0.315296 2.96846,-1.100442 0.11802,0.666792 1.31545,0.973934 2.10041,1.261507 -0.715,-0.169582 -1.43655,-0.152305 -2.22266,-0.542989 -0.99162,0.364035 -1.92064,0.518988 -2.87567,0.535218 -0.93313,0.01585 -1.80125,-0.156956 -2.99327,-0.551336 -0.758391,0.340119 -0.929251,0.65264 -2.415791,0.643776 -0.86468,-0.0052 -1.216429,0.10577 -2.540609,-0.772065 -0.80242,0.402987 -1.52034,0.434586 -2.04737,0.570884 z"
       id="path1672-2" />
    <path
       style="fill:#636363;fill-opacity:0.536309;stroke:none;stroke-width:0.264583px;stroke-linecap:butt;stroke-linejoin:miter;stroke-opacity:1"
       d="m 144.96678,42.878831 c 0.72994,-0.358406 1.61826,-0.632613 2.03268,-1.158764 0.64251,0.65557 1.45599,1.29198 2.48582,1.210201 0.97234,-0.07721 1.93079,-0.518288 2.46748,-1.202028 0.96139,0.398442 1.77628,1.17906 3.04052,1.106038 1.05381,-0.06087 2.31083,-0.315296 2.96846,-1.100442 0.11802,0.666792 1.31545,0.973935 2.10041,1.261507 -0.715,-0.169582 -1.43655,-0.152305 -2.22266,-0.542988 -0.99162,0.364034 -1.92064,0.518987 -2.87567,0.535217 -0.93313,0.01586 -1.80125,-0.156956 -2.99327,-0.551337 -0.75839,0.34012 -0.92925,0.652641 -2.41579,0.643776 -0.86468,-0.0052 -1.21643,0.10577 -2.54061,-0.772064 -0.80242,0.402986 -1.52034,0.434586 -2.04737,0.570884 z"
       id="path1672-0" />
    <path
       style="fill:#636363;fill-opacity:0.536309;stroke:none;stroke-width:0.264583px;stroke-linecap:butt;stroke-linejoin:miter;stroke-opacity:1"
       d="m 111.39639,106.48815 c 0.72994,-0.3584 1.61826,-0.63261 2.03268,-1.15877 0.64251,0.65558 1.45599,1.29199 2.48582,1.21021 0.97234,-0.0772 1.93079,-0.51829 2.46748,-1.20203 0.96139,0.39844 1.77628,1.17906 3.04052,1.10604 1.05381,-0.0609 2.31083,-0.3153 2.96846,-1.10044 0.11802,0.66679 1.31545,0.97393 2.10041,1.2615 -0.715,-0.16958 -1.43655,-0.1523 -2.22266,-0.54298 -0.99162,0.36403 -1.92064,0.51898 -2.87567,0.53521 -0.93313,0.0159 -1.80125,-0.15695 -2.99327,-0.55133 -0.75839,0.34012 -0.92925,0.65264 -2.41579,0.64377 -0.86468,-0.005 -1.21643,0.10577 -2.54061,-0.77206 -0.80242,0.40298 -1.52034,0.43458 -2.04737,0.57088 z"
       id="path1672-23" />
    <path
       style="fill:#636363;fill-opacity:0.536309;stroke:none;stroke-width:0.264583px;stroke-linecap:butt;stroke-linejoin:miter;stroke-opacity:1"
       d="m 121.30507,71.135558 c 2.24756,-0.246134 3.47885,-0.826961 3.2228,-1.942296 0.72973,1.778045 1.95792,1.500074 2.92389,1.941859 -0.95621,-0.105651 -2.02171,-0.155048 -2.9758,-0.616267 -1.32188,0.764349 -2.118,0.450868 -3.17089,0.616704 z"
       id="path1707" />
    <path
       style="fill:#636363;fill-opacity:0.536309;stroke:none;stroke-width:0.264583px;stroke-linecap:butt;stroke-linejoin:miter;stroke-opacity:1"
       d="m 162.55512,68.903306 c 2.24756,-0.246134 3.47885,-0.82696 3.2228,-1.942295 0.72973,1.778045 1.95792,1.500073 2.92389,1.941859 -0.95621,-0.105651 -2.02171,-0.155049 -2.9758,-0.616268 -1.32188,0.76435 -2.118,0.450869 -3.17089,0.616704 z"
       id="path1707-7" />
    <path
       style="fill:#636363;fill-opacity:0.536309;stroke:none;stroke-width:0.264583px;stroke-linecap:butt;stroke-linejoin:miter;stroke-opacity:1"
       d="m 139.17136,26.693888 c 2.24756,-0.246134 3.47885,-0.826961 3.2228,-1.942296 0.72973,1.778045 1.95792,1.500073 2.92389,1.941858 -0.95621,-0.105651 -2.02171,-0.155049 -2.9758,-0.616266 -1.32188,0.764349 -2.118,0.450869 -3.17089,0.616704 z"
       id="path1707-5" />
    <path
       style="fill:#636363;fill-opacity:0.536309;stroke:none;stroke-width:0.264583px;stroke-linecap:butt;stroke-linejoin:miter;stroke-opacity:1"
       d="m 93.954904,117.0756 c 2.247559,-0.24613 3.478845,-0.82696 3.222805,-1.94229 0.72972,1.77804 1.957919,1.50007 2.923891,1.94186 -0.956212,-0.10566 -2.021721,-0.15505 -2.975811,-0.61627 -1.321875,0.76435 -2.117995,0.45087 -3.170885,0.6167 z"
       id="path1707-9" />
    <path
       style="fill:#636363;fill-opacity:0.536309;stroke:none;stroke-width:0.264583px;stroke-linecap:butt;stroke-linejoin:miter;stroke-opacity:1"
       d="m 140.08741,112.22953 c 2.24756,-0.24613 3.47885,-0.82696 3.2228,-1.94229 0.72973,1.77804 1.95792,1.50007 2.92389,1.94186 -0.95621,-0.10566 -2.02171,-0.15505 -2.9758,-0.61627 -1.32188,0.76435 -2.118,0.45087 -3.17089,0.6167 z"
       id="path1707-2" />
    <path
       style="fill:#636363;fill-opacity:0.536309;stroke:none;stroke-width:0.264583px;stroke-linecap:butt;stroke-linejoin:miter;stroke-opacity:1"
       d="m 90.727486,33.577522 c 0.72994,-0.358406 1.61826,-0.632613 2.03268,-1.158764 0.64251,0.65557 1.455991,1.29198 2.48582,1.210201 0.97234,-0.07721 1.930792,-0.518288 2.467482,-1.202028 0.96139,0.398442 1.77628,1.17906 3.040522,1.106038 1.05381,-0.06087 2.31083,-0.315296 2.96846,-1.100442 0.11802,0.666792 1.31545,0.973935 2.10041,1.261507 -0.715,-0.169582 -1.43655,-0.152305 -2.22266,-0.542988 -0.99162,0.364034 -1.92064,0.518987 -2.87567,0.535217 -0.933132,0.01586 -1.801252,-0.156956 -2.993272,-0.551337 -0.75839,0.34012 -0.92925,0.652641 -2.415792,0.643776 -0.86468,-0.0052 -1.21643,0.10577 -2.54061,-0.772064 -0.80242,0.402986 -1.52034,0.434586 -2.04737,0.570884 z"
       id="path1672-3" />
    <path
       style="fill:#636363;fill-opacity:0.536309;stroke:none;stroke-width:0.264583px;stroke-linecap:butt;stroke-linejoin:miter;stroke-opacity:1"
       d="m 86.988734,61.557485 c 2.247561,-0.246134 3.478851,-0.82696 3.222801,-1.942295 0.72973,1.778045 1.95792,1.500073 2.92389,1.941859 -0.95621,-0.105651 -2.02171,-0.155049 -2.9758,-0.616268 -1.32188,0.76435 -2.118,0.450869 -3.170891,0.616704 z"
       id="path1707-7-7" />
    <path
       style="fill:#636363;fill-opacity:0.536309;stroke:none;stroke-width:0.264583px;stroke-linecap:butt;stroke-linejoin:miter;stroke-opacity:1"
       d="m 64.18956,79.162646 c 0.729941,-0.358406 1.61826,-0.632613 2.03268,-1.158764 0.64251,0.65557 1.455991,1.29198 2.48582,1.210201 0.97234,-0.07721 1.930792,-0.518288 2.467483,-1.202028 0.96139,0.398442 1.77628,1.17906 3.040519,1.106038 1.05381,-0.06087 2.310829,-0.315296 2.96846,-1.100442 0.118019,0.666792 1.31545,0.973935 2.100409,1.261507 -0.715,-0.169582 -1.436549,-0.152305 -2.222659,-0.542988 -0.991621,0.364034 -1.92064,0.518987 -2.875669,0.535217 -0.93313,0.01586 -1.80125,-0.156956 -2.99327,-0.551337 -0.75839,0.34012 -0.92925,0.652641 -2.415792,0.643776 -0.86468,-0.0052 -1.216431,0.10577 -2.540611,-0.772064 -0.802419,0.402986 -1.520339,0.434586 -2.04737,0.570884 z"
       id="path1672-3-5" />
    <path
       style="fill:#636363;fill-opacity:0.536309;stroke:none;stroke-width:0.264583px;stroke-linecap:butt;stroke-linejoin:miter;stroke-opacity:1"
       d="m 80.355534,44.409884 c 2.24756,-0.246134 3.47885,-0.82696 3.2228,-1.942295 0.72973,1.778045 1.95792,1.500073 2.92389,1.941859 -0.95621,-0.105651 -2.02171,-0.155049 -2.9758,-0.616268 -1.32188,0.76435 -2.118,0.450869 -3.17089,0.616704 z"
       id="path1707-7-8" />
  </g>
</svg>
