<?xml version="1.0" encoding="UTF-8" standalone="no"?>
<svg
   xmlns:dc="http://purl.org/dc/elements/1.1/"
   xmlns:cc="http://creativecommons.org/ns#"
   xmlns:rdf="http://www.w3.org/1999/02/22-rdf-syntax-ns#"
   xmlns:svg="http://www.w3.org/2000/svg"
   xmlns="http://www.w3.org/2000/svg"
   xmlns:sodipodi="http://sodipodi.sourceforge.net/DTD/sodipodi-0.dtd"
   xmlns:inkscape="http://www.inkscape.org/namespaces/inkscape"
   width="210mm"
   height="297mm"
   viewBox="0 0 210 297"
   version="1.1"
   id="svg907"
   inkscape:version="1.0.1 (3bc2e813f5, 2020-09-07)"
   sodipodi:docname="log.svg">
  <defs
     id="defs901" />
  <sodipodi:namedview
     id="base"
     pagecolor="#ffffff"
     bordercolor="#666666"
     borderopacity="1.0"
     inkscape:pageopacity="0.0"
     inkscape:pageshadow="2"
     inkscape:zoom="1.0622394"
     inkscape:cx="207.69125"
     inkscape:cy="382.28553"
     inkscape:document-units="mm"
     inkscape:current-layer="layer1"
     inkscape:document-rotation="0"
     showgrid="false"
     inkscape:window-width="1920"
     inkscape:window-height="1376"
     inkscape:window-x="640"
     inkscape:window-y="27"
     inkscape:window-maximized="0"
     inkscape:snap-global="false" />
  <metadata
     id="metadata904">
    <rdf:RDF>
      <cc:Work
         rdf:about="">
        <dc:format>image/svg+xml</dc:format>
        <dc:type
           rdf:resource="http://purl.org/dc/dcmitype/StillImage" />
        <dc:title />
      </cc:Work>
    </rdf:RDF>
  </metadata>
  <g
     inkscape:label="Layer 1"
     inkscape:groupmode="layer"
     id="layer1">
    <g
       id="g910">
      <path
         style="fill:#6b471b;fill-opacity:1;stroke:none;stroke-width:0.264583px;stroke-linecap:butt;stroke-linejoin:miter;stroke-opacity:1"
         d="m 61.87299,95.649958 c 0.192911,-0.154675 0.802237,-0.501315 1.001235,-0.648074 0.734661,-0.541803 1.816817,-0.80009 2.651604,-1.155332 1.932726,-0.822474 3.907002,-1.696667 5.781987,-2.642116 1.05505,-0.532003 1.958192,-1.295138 3.019896,-1.81823 1.452962,-0.71586 2.983307,-1.223 4.477224,-1.837169 1.556133,-0.639747 3.102652,-1.309566 4.692925,-1.865577 1.317283,-0.460561 2.611514,-0.272111 3.951099,-0.511381 1.585918,-0.283271 3.245081,-0.729917 4.761326,-1.273707 1.336008,-0.47915 2.737961,-1.215282 3.898508,-2.045507 1.458965,-1.04371 2.74982,-2.168911 4.414076,-2.921484 2.60609,-1.178468 5.33278,-2.062372 8.01797,-3.035118 4.15502,-1.505209 8.39969,-3.142763 12.27947,-5.265285 2.22491,-1.217189 4.74114,-1.579534 7.19526,-2.293126 2.17586,-0.632687 4.06747,-1.219872 6.2072,-1.95517 0.39061,-0.134231 1.44525,-0.310914 1.82611,-0.464576 0.74111,-0.299003 1.17799,-0.284901 1.90496,-0.596432 0.38154,-0.163507 0.84586,-0.178177 1.24688,-0.274627 1.26368,-0.303927 3.88435,-2.104619 5.18921,-2.153589 l 0.55582,-0.05715 c 0.31399,-0.009 0.552,-0.488366 0.82073,-0.748126 0.78105,-0.754993 1.60455,-2.004796 2.30963,-2.869393 1.62269,-1.98979 2.42745,-3.833237 2.88401,-5.8327 0.0217,-0.09485 -0.21519,-0.03395 -0.19504,-0.129533 0.0308,-0.146136 0.31759,-0.449284 0.34513,-0.597329 0.28104,-1.510554 0.40225,-3.12641 0.55399,-4.970098 0.17539,-2.131094 0.35192,-1.762585 0.17314,-3.897585 -0.12284,-1.466895 -0.25795,-4.19683 -0.51251,-5.639973 -0.20979,-1.189416 -1.05739,-3.29933 -1.43889,-4.452472 -0.23838,-0.720556 -1.33062,-2.193163 -2.39879,-3.384897 -0.18134,-0.202325 -0.63652,0.28405 -0.81626,0.09062 -0.17113,-0.184168 0.0194,-0.854514 -0.14603,-1.025837 -0.53727,-0.556324 -1.02395,-1.028454 -1.32576,-1.309442 -0.57226,-0.532783 -1.7432,-1.329081 -2.40781,-1.724705 -1.14955,-0.684279 -2.82259,-1.381519 -4.23075,-0.932525 l -0.26675,0.108749 c -1.11461,0.534638 -2.26576,0.456712 -3.39405,0.937682 -0.34516,0.147134 -0.61397,0.483725 -0.91544,0.700776 -0.969,0.69764 -1.30096,0.467801 -2.42779,0.836577 -1.30132,0.425884 -2.8113,1.36606 -4.12821,1.719969 -4.12833,1.109464 -8.2455,2.130128 -12.41102,3.12982 -0.65885,0.158115 -1.31617,0.477594 -2.00974,0.653425 -3.36829,0.853914 -6.78408,1.594628 -10.02772,2.864657 -1.39707,0.547018 -2.79907,1.026004 -4.087893,1.799294 -0.702783,0.421666 -2.210549,0.583088 -2.835744,1.059187 -0.799637,0.608941 -1.858322,0.977395 -2.756836,1.411021 -1.301843,0.628274 -2.71,1.03062 -4.056333,1.548336 -2.832727,1.089292 -5.671611,2.164048 -8.573839,3.046457 -2.596428,0.789432 -4.248082,1.255126 -6.925462,1.623677 -1.152615,0.158663 -2.24936,0.550098 -3.393429,0.729184 -1.488919,0.233066 -2.938127,-0.158544 -4.340421,0.402471 -0.4757,0.190312 -0.916472,0.462902 -1.399463,0.634486 -3.607755,1.266257 -3.904847,1.693486 -9.284734,1.863957 z"
         id="path1539"
         sodipodi:nodetypes="csssssssssssssssssccssssssssssssssccsssssssssssssssccc" />
      <path
         style="fill:#996c39;fill-opacity:1;stroke:none;stroke-width:0.264583px;stroke-linecap:butt;stroke-linejoin:miter;stroke-opacity:1"
         d="m 151.74791,42.652123 c -0.12284,-1.466895 -0.16851,-3.057408 -0.42307,-4.500551 -0.2098,-1.189416 -1.05739,-3.299331 -1.43889,-4.452473 -0.23838,-0.720556 -1.33062,-2.193163 -2.3988,-3.384897 -0.18134,-0.202325 -0.63651,0.28405 -0.81625,0.09062 -0.17114,-0.184168 0.0194,-0.854514 -0.14603,-1.025837 -0.53728,-0.556324 -1.02396,-1.028454 -1.32577,-1.309442 -0.57226,-0.532783 -1.7432,-1.329081 -2.4078,-1.724705 -1.14956,-0.684279 -2.8226,-1.381519 -4.23076,-0.932525 l -0.26675,0.108749 c -1.1146,0.534638 -2.26576,0.456712 -3.39404,0.937682 -0.34516,0.147134 -0.61398,0.483725 -0.91544,0.700776 -0.969,0.69764 -1.30097,0.467801 -2.42779,0.836577 -1.30133,0.425884 -2.81131,1.36606 -4.12821,1.719969 -4.12833,1.109464 -8.2455,2.130128 -12.41102,3.12982 -0.65885,0.158115 -1.31617,0.477594 -2.00975,0.653425 -3.36828,0.853914 -6.78407,1.594628 -10.02771,2.864658 -1.39707,0.547017 -2.79907,1.026004 -4.087893,1.799294 -0.702784,0.421666 -2.210552,0.583088 -2.835746,1.059187 -0.799637,0.608941 -1.858323,0.977395 -2.756834,1.411021 -1.301846,0.628274 -2.71,1.03062 -4.056335,1.548336 -2.832727,1.089292 -5.671611,2.164048 -8.573839,3.046457 -2.596428,0.789432 -4.248082,1.255126 -6.925462,1.623677 -1.152615,0.158663 -2.24936,0.550098 -3.393429,0.729184 -1.488919,0.233066 -2.938127,-0.158544 -4.340421,0.402471 -0.4757,0.190312 -0.916472,0.462902 -1.399463,0.634486 -3.607755,1.266257 -3.904847,1.693486 -9.284734,1.863957 15.786342,18.583967 13.653269,17.536434 16.178255,21.16982 1.37981,-0.338696 0.163665,0.01076 1.518535,-0.421872 0.459661,-0.146775 1.04688,-0.762553 1.67131,-0.973286 1.403313,-0.473586 2.944881,-0.693785 4.303908,-1.183016 0.566521,-0.203938 1.070639,-0.557059 1.642181,-0.747167 0.739244,-0.245891 1.505511,-0.378661 2.257544,-0.576763 0.658898,-0.173569 1.314405,-0.377192 1.977181,-0.534159 0.68048,-0.161163 1.383814,-0.210428 2.071833,-0.330981 2.243003,-0.393004 4.671724,-0.800848 6.772646,-1.727009 0.566912,-0.249912 0.77702,-0.805879 1.278067,-1.166627 0.82178,-0.591672 1.758868,-0.940999 2.628942,-1.445181 0.696111,-0.403376 1.255816,-0.998392 2.020872,-1.264941 0.974752,-0.339611 2.032832,-0.234773 3.040402,-0.367035 0.90998,-0.119447 1.78224,-0.434322 2.67629,-0.629193 0.76546,-0.166843 1.55528,-0.243718 2.31216,-0.442399 0.66146,-0.173635 1.29464,-0.451342 1.94804,-0.652137 0.4598,-0.141298 1.00313,-0.172032 1.43099,-0.403077 0.26203,-0.141496 0.46384,-0.49417 0.75374,-0.655407 0.73898,-0.41102 1.55912,-0.617276 2.34492,-0.914302 0.36193,-0.136808 0.69796,-0.339051 1.06688,-0.458788 0.46441,-0.150733 0.94189,-0.355052 1.42372,-0.445674 1.37716,-0.259014 2.78312,-0.313114 4.15461,-0.62592 0.42866,-0.09777 0.81075,-0.297511 1.22344,-0.432573 0.47487,-0.155408 0.97778,-0.222562 1.4492,-0.393242 0.58026,-0.210087 1.14727,-0.485277 1.74413,-0.642302 0.62988,-0.165711 1.30453,-0.389112 1.85702,-0.740614 0.29143,-0.185409 0.53417,-0.426866 0.84476,-0.586597 0.59338,-0.305168 1.27262,-0.411978 1.86065,-0.714394 0.34033,-0.175029 0.53898,-0.588282 0.91394,-0.757004 0.36833,-0.165738 0.81903,-0.237377 1.20525,-0.337532 1.06298,-0.275653 2.13566,-0.512135 3.19698,-0.793046 1.18636,-0.314008 2.47216,-0.74463 3.54652,-1.353429 0.3962,-0.224512 0.72859,-0.651375 1.14334,-0.832368 0.38528,-0.16813 0.77493,-0.325453 1.14698,-0.540713 1.25733,-0.727456 2.90199,-0.942658 4.2857,-1.523828 0.77381,-0.325006 1.33403,-1.019784 2.10461,-1.366533 0.50045,-0.225193 0.98554,-0.505595 1.49289,-0.701289 0.19018,-0.07335 0.35914,-0.267901 0.53526,-0.373584 0.28137,-0.168838 0.60086,-0.265364 0.91395,-0.353922"
         id="path1539-3"
         sodipodi:nodetypes="csssssssccssssssssssssssscccsssssssssssssssssssssssssssssssssssssc" />
      <path
         style="fill:#4c3c26;fill-opacity:1;stroke:none;stroke-width:0.264583px;stroke-linecap:butt;stroke-linejoin:miter;stroke-opacity:1"
         d="m 149.81695,55.765416 c -0.57559,0.21581 -1.14115,0.528564 -1.75301,0.666213 -1.13972,0.256405 -2.25301,0.672275 -3.38817,0.954572 -0.54751,0.136154 -2.07762,0.337322 -2.48221,0.580033 -0.79998,0.479903 -1.78758,0.657587 -2.6295,1.060635 -0.37126,0.177731 -0.71621,0.414115 -1.09748,0.570092 -0.43622,0.178456 -0.89472,0.307475 -1.32213,0.507111 -1.3016,0.607965 -2.55293,1.288121 -3.86692,1.869369 -0.42123,0.186327 -0.88091,0.269507 -1.30003,0.45077 -0.64955,0.280922 -1.30001,0.69165 -1.97766,0.898224 -1.92792,0.5877 -3.87071,1.084998 -5.82617,1.571064 -1.63917,0.407445 -3.33802,0.41675 -4.95336,0.947941 -0.70956,0.233331 -1.34624,0.610965 -2.04026,0.881652 -1.64035,0.639779 -3.19375,1.493166 -4.83919,2.101379 -0.34983,0.129313 -0.73048,0.157367 -1.08274,0.278419 -1.23355,0.423897 -2.46864,0.811406 -3.71961,1.193215 -1.31338,0.40086 -2.582,0.921229 -3.88904,1.335736 -0.77287,0.245107 -1.57118,0.403378 -2.3312,0.686099 -1.897837,0.705969 -3.814423,1.399579 -5.649401,2.260473 -0.847487,0.397605 -1.632188,0.918096 -2.46747,1.335736 -0.467138,0.233568 -0.96388,0.405016 -1.428927,0.643008 -0.2373,0.121442 -0.454388,0.314378 -0.685001,0.427575 -0.924505,0.453782 -2.035339,0.678482 -3.030932,0.941311 -0.694584,0.183367 -1.367827,0.45276 -2.062372,0.643009 -0.389471,0.10668 -0.791321,0.09501 -1.182171,0.18561 -1.287407,0.298416 -2.54486,0.703374 -3.800639,1.09378 -1.491454,0.463671 -2.761141,1.368896 -4.150506,2.038408 -1.0704,0.51581 -2.217655,0.84545 -3.255586,1.425226 -0.52042,0.290703 -0.911881,0.769117 -1.443657,1.037428 -1.248876,0.630129 -2.688989,0.931498 -4.003188,1.3954 -0.879044,0.384641 -4.381982,2.475435 -6.285423,9.905052 0.192911,-0.15467 0.802237,-0.50131 1.001235,-0.64807 0.734661,-0.5418 1.816817,-0.80009 2.651604,-1.15533 1.932726,-0.82247 3.907002,-1.69667 5.781987,-2.64212 1.05505,-0.532 1.958192,-1.29514 3.019896,-1.81823 1.452962,-0.71586 2.983307,-1.223 4.477224,-1.83717 1.556133,-0.63974 3.102651,-1.30956 4.692921,-1.86557 1.31729,-0.46057 2.61152,-0.27211 3.9511,-0.51138 1.58592,-0.28328 3.24508,-0.72992 4.76133,-1.27371 1.33601,-0.479151 2.73796,-1.215283 3.89851,-2.045509 1.45896,-1.043709 2.74982,-2.168911 4.414066,-2.921484 2.60609,-1.178467 5.33278,-2.062371 8.01797,-3.035117 4.15502,-1.505209 8.39969,-3.142763 12.27947,-5.265285 2.22491,-1.217189 4.74114,-1.579536 7.19526,-2.293128 2.17586,-0.632685 4.06747,-1.219872 6.2072,-1.95517 0.39061,-0.134229 1.44525,-0.310912 1.82611,-0.464574 0.74111,-0.299003 1.17799,-0.284901 1.90496,-0.596432 0.38154,-0.163507 0.84586,-0.178178 1.24688,-0.274627 1.26368,-0.303929 3.88435,-2.10462 5.18921,-2.153589 l 0.55582,-0.05715 c 0.31399,-0.009 0.552,-0.488368 0.82073,-0.748128 0.78105,-0.754991 1.60454,-2.004795 2.30963,-2.869393 1.06164,-1.301818 1.77318,-2.540995 2.26615,-3.802205 -0.26114,0.178197 -0.36578,0.276683 -0.52531,0.348834 z"
         id="path1740"
         sodipodi:nodetypes="cssssssssssssssssssssssssssssccsssssssssssssssssccssccc" />
      <path
         style="fill:#492d09;fill-opacity:1;stroke:none;stroke-width:0.264583px;stroke-linecap:butt;stroke-linejoin:miter;stroke-opacity:1"
         d="m 42.035162,57.870131 c 0.259107,-0.458511 0.975682,-0.05476 1.180078,0.05164 0.92084,0.479369 0.72849,0.241594 0.694463,0.149801 -0.203148,-0.342317 -0.437458,-0.441458 -0.532705,-0.66758 -0.01423,-0.387864 0.178188,-0.464672 0.365881,-0.892603 0.436973,-0.996272 2.007196,-2.01974 3.40582,-3.186738 0.845627,-0.705583 1.81791,-1.00125 2.78315,-1.491517 0.708075,-0.359646 1.485138,-0.823706 2.257028,-1.027488 4.344992,-1.147096 8.367299,0.807175 11.669175,3.484935 1.096028,0.88886 2.966339,3.050027 3.645969,4.289885 0.558138,1.018218 2.2533,4.14434 2.56671,5.249049 0.198438,0.699457 7.178445,-1.4134 7.774595,-1.003469 0.879294,0.604629 -6.736203,2.294718 -6.60518,3.43466 0.145895,1.269336 0.807275,3.238819 0.886605,4.508557 0.07741,1.238785 0.277908,2.465621 0.326191,3.707485 0.221237,5.690393 -0.459751,7.259246 -3.315457,12.228026 -1.156804,2.012778 -5.479938,8.085442 -7.620648,9.149409 -1.849644,0.9193 -4.381939,0.801745 -6.387015,0.719714 -1.750372,-0.07161 -3.531618,-0.08044 -5.171691,-0.790742 -2.007161,-0.86928 -3.374421,-2.211232 -4.892839,-3.731162 -0.811405,-0.812213 -1.602596,-1.668547 -2.34566,-2.568624 -0.07668,-0.09288 0.598446,-0.926351 0.522824,-1.020161 -0.108525,-0.134629 -0.96722,0.469909 -1.073417,0.333365 -1.543254,-1.984253 -2.83114,-4.170654 -3.585459,-6.555438 -0.409182,-1.293633 -0.621483,-2.653078 -0.910191,-3.977378 -0.354782,-1.627402 -0.942533,-3.278238 -0.925949,-4.962252 0.0083,-0.845445 0.24438,-1.668677 0.299879,-2.509542 0.178348,-2.702065 0.514207,-5.522714 1.552035,-8.044717 0.225153,-0.547131 0.626883,-1.00013 0.936488,-1.496253 0.452326,-0.724823 0.646078,-1.587288 1.120611,-2.324864 0.306765,-0.476817 0.936025,-0.272632 1.041172,-0.458697 z"
         id="path1529"
         sodipodi:nodetypes="ssccssssssssssssssssssssscssssss" />
      <path
         style="fill:#e3ae70;fill-opacity:1;stroke:none;stroke-width:0.264583px;stroke-linecap:butt;stroke-linejoin:miter;stroke-opacity:1"
         d="m 42.792911,58.852053 c -0.09696,-0.482955 0.504849,0.193445 0.696003,0.292966 0.861181,0.448364 0.711366,0.334514 1.402584,1.261012 0.18115,0.242811 0.795438,0.988548 0.782057,0.685893 -0.01885,-0.426355 0.0065,-0.74941 -0.328519,-1.570691 -0.400077,-0.814532 -1.130579,-1.539787 -0.955046,-1.94004 0.408662,-0.931832 1.877155,-1.889103 3.185166,-2.98062 0.790841,-0.659946 1.700132,-0.93649 2.602837,-1.395046 0.662201,-0.336385 1.38892,-0.770429 2.110801,-0.961031 4.063492,-1.072902 7.825205,0.754967 10.913163,3.259531 1.025017,0.831369 2.774158,2.852752 3.409756,4.012417 0.521976,0.95236 2.107316,3.876285 2.40042,4.909542 0.185582,0.654217 -2.521112,1.486329 -1.963583,1.869746 0.822325,0.565522 2.9347,-0.662014 3.057233,0.404197 0.136445,1.187235 0.754975,3.029333 0.829165,4.216944 0.0724,1.158661 0.259903,2.306146 0.305059,3.467686 0.206903,5.32234 -0.429965,6.78972 -3.100657,11.43712 -1.081857,1.882593 -5.124909,7.56248 -7.126929,8.55763 -1.72981,0.85984 -4.098045,0.749889 -5.973217,0.673163 -1.636971,-0.06698 -3.302814,-0.07524 -4.836632,-0.739597 -1.877122,-0.813055 -3.155801,-2.068212 -4.575845,-3.489831 -0.758836,-0.759681 -1.354373,-0.702603 -2.049296,-1.544464 -0.07171,-0.08687 2.773732,-2.535194 2.703009,-2.622938 -0.101494,-0.125922 -3.263009,1.250254 -3.362326,1.122541 -1.443271,-1.855912 -2.647718,-3.900899 -3.353167,-6.131434 -0.382672,-1.209961 -0.581218,-2.481478 -0.851222,-3.720122 -0.331796,-1.522143 -0.881469,-3.066204 -0.865959,-4.641296 0.0078,-0.790762 0.228547,-1.560748 0.280451,-2.347226 0.166793,-2.527296 0.480892,-5.165506 1.451482,-7.524387 0.210566,-0.511743 0.586269,-0.935442 0.875816,-1.399476 0.423021,-0.677941 0.60422,-1.484622 1.04801,-2.174492 0.28689,-0.445977 1.562671,0.373552 1.523325,0.177567 z"
         id="path1529-5"
         sodipodi:nodetypes="sssscssssssssssssssssssssscssssss" />
      <path
         style="opacity:1;fill:#341f06;fill-opacity:1;stroke:none;stroke-width:0.264583px;stroke-linecap:butt;stroke-linejoin:miter;stroke-opacity:1"
         d="m 66.969991,66.208436 c 0.08772,-0.376699 1.170573,-0.850848 1.758447,-1.276525 0.564124,-0.633299 1.239006,-0.581542 1.404284,-0.760728 0.04581,-0.123405 0.12855,-0.151276 0.06062,-0.227214 0.845524,0.200111 5.169654,-0.928018 6.999994,-1.142623 0.559811,-0.06454 0.601717,0.01275 0.69827,0.07508 -0.09516,0.348734 -2.867791,1.063583 -4.301686,1.595375 l -3.704863,1.277572 c -0.686866,0.290851 -1.768043,0.390889 -2.915066,0.459063 z"
         id="path1696"
         sodipodi:nodetypes="ccccccccc" />
      <path
         style="opacity:1;fill:#ffc77b;fill-opacity:1;stroke:none;stroke-width:0.264583px;stroke-linecap:butt;stroke-linejoin:miter;stroke-opacity:1"
         d="m 67.002485,66.261217 c 0.31143,0.236733 0.765519,0.216239 1.240271,0.158488 l 1.172509,-0.17522 c 0.885253,0.03688 0.605983,0.598327 0.756818,0.844824 0.08487,0.524769 0.685382,2.970827 0.714977,3.371037 -0.33943,-0.466877 -1.257492,-3.090207 -1.728764,-3.330734 -0.366489,-0.142187 -0.280452,-0.246731 -1.105933,-0.158839 -0.577536,0.05253 -0.862992,-0.48054 -1.049878,-0.709554 z"
         id="path1698"
         sodipodi:nodetypes="ccccccccc" />
      <path
         style="fill:#fcd19b;fill-opacity:1;stroke:none;stroke-width:0.264583px;stroke-linecap:butt;stroke-linejoin:miter;stroke-opacity:1"
         d="m 59.913268,57.225067 c 0.20669,0.166852 0.346442,0.396634 0.550182,0.566744 0.249024,0.207919 0.52166,0.377853 0.738042,0.622426 0.158744,0.179423 0.274275,0.392514 0.436125,0.568736 0.157039,0.170977 0.334162,0.334842 0.456248,0.53294 0.124687,0.202318 0.185432,0.452048 0.286273,0.668164 0.162032,0.347247 0.354022,0.680389 0.516637,1.028094 0.329409,0.704365 0.541665,1.728922 0.98853,2.35448 0.377174,0.527993 0.740934,1.08156 1.218904,1.529221 0.354916,0.332408 0.757697,0.613054 1.107064,0.948553 0.23896,0.229475 0.437568,0.492777 0.67096,0.727819 0.302391,0.304532 0.619041,0.599443 0.856583,0.9585 0.846832,1.28003 0.956526,2.841189 1.122725,4.319199 0.03972,0.353258 -0.03393,0.700089 -0.04026,1.051956 -0.007,0.38667 0.05887,0.77147 0.03131,1.159346 -0.02601,0.36614 -0.128935,0.722138 -0.149841,1.089744 -0.02506,0.440826 -0.02824,0.898837 -0.13196,1.330357 -0.105446,0.438785 -0.295151,0.855103 -0.420457,1.288604 -0.127606,0.441435 -0.157023,0.902771 -0.322059,1.33434 -0.101984,0.266695 -0.251577,0.514839 -0.360077,0.779521 -0.120609,0.294228 -0.218996,0.605568 -0.364552,0.888896 -0.227487,0.442806 -0.510335,0.851815 -0.720158,1.304508 -0.151641,0.327168 -0.250351,0.674656 -0.402573,1.002246 -0.191095,0.411237 -0.432683,0.802383 -0.601618,1.222978 -0.303451,0.75548 -0.633771,1.494865 -1.107076,2.165566 -0.485576,0.688098 -1.052248,1.390613 -1.675142,1.964721 -0.298936,0.275521 -0.656585,0.481326 -0.959464,0.75566 -0.539511,0.488664 -0.996783,1.033149 -1.643832,1.392004 -0.329284,0.182623 -0.664992,0.197813 -1.026564,0.254536 -0.304201,0.04772 -0.595077,0.158073 -0.899077,0.206821 -0.373699,0.05992 -1.179263,-0.143241 -1.614756,-0.151134 -0.745018,-0.01352 -1.53884,0.210747 -2.276766,0.05568 -0.791052,-0.166235 -1.397405,-0.641524 -2.093374,-1.000258 -0.359911,-0.18551 -0.73304,-0.311286 -1.073525,-0.536913 -0.363135,-0.240639 -0.728384,-0.514433 -1.031029,-0.827253 -0.243994,-0.2522 -0.39554,-0.581503 -0.702268,-0.769583 -0.444119,-0.272323 -1.073757,-0.200952 -1.558121,-0.376565 -0.495265,-0.179565 -2.093697,-0.259166 -1.926691,-0.462609 0.197238,-0.240271 0.556048,-0.491536 0.472176,-0.536116 -0.04193,-0.02229 -0.68965,0.254757 -0.973358,0.293123 -0.141701,0.01916 -0.501234,-0.452595 -0.79405,-0.712949 -0.537034,-0.477498 -0.893023,-1.17478 -1.254682,-1.77978 -0.476146,-0.796515 -0.994628,-1.651994 -1.347989,-2.522094 -0.433764,-1.068065 -0.446567,-2.210921 -0.735818,-3.310986 -0.164709,-0.626424 -0.438112,-1.214376 -0.579255,-1.847395 -0.166589,-0.747136 -0.186523,-1.51776 -0.386914,-2.263006 -0.135461,-0.503764 -0.337989,-0.973216 -0.402575,-1.499389 -0.06147,-0.500815 0.03323,-1.027985 0.04249,-1.531208 0.0061,-0.327982 -0.03822,-0.653271 -0.03353,-0.982359 0.0043,-0.302224 0.08561,-0.605525 0.123006,-0.904805 0.05787,-0.463154 0.08466,-0.930346 0.18116,-1.388032 0.383485,-1.81864 2.005012,-2.781645 3.3145,-3.927445 0.619269,-0.541859 1.094978,-1.214168 1.731063,-1.734043 0.423587,-0.346197 0.918465,-0.590562 1.370977,-0.894863 0.469023,-0.3154 0.892154,-0.684271 1.346382,-1.018154 0.419988,-0.30872 0.878126,-0.569737 1.290463,-0.886906 0.405874,-0.312197 0.814113,-0.642975 1.154042,-1.026109 0.261988,-0.295286 0.452817,-0.637524 0.693317,-0.948553 0.523805,-0.677418 1.497334,-1.718907 2.227563,-2.157612 0.16628,-0.0999 0.477588,-0.08892 0.662007,-0.135222 0.740839,-0.185989 1.390075,-0.188235 2.095613,0.105392 0.159702,0.06645 0.290037,0.183976 0.445065,0.256528 1.094237,0.684862 2.553878,0.679866 3.480013,1.403934 z"
         id="path1700"
         sodipodi:nodetypes="csssssssssssscsssssssssssssssssssssssssssssssssssssssssssssssccc" />
      <path
         style="fill:#e6b579;fill-opacity:1;stroke:none;stroke-width:0.264583px;stroke-linecap:butt;stroke-linejoin:miter;stroke-opacity:1"
         d="m 56.320044,58.717734 c 0.882979,0.150443 1.82547,0.266854 2.580047,0.82392 0.84584,0.624444 0.440257,1.276671 0.90315,1.874708 0.473879,0.612232 0.984392,1.249644 1.531987,1.791125 0.09244,0.0914 0.148559,0.27754 0.222548,0.389269 0.144111,0.217623 0.32768,0.420216 0.494272,0.620927 0.390776,0.47081 0.814012,0.907304 1.161924,1.416185 0.351109,0.513554 0.580289,1.069065 0.882451,1.60962 0.1912,0.34206 0.450884,0.657051 0.623658,1.007805 0.176901,0.359137 0.323888,0.726771 0.514971,1.079456 0.163189,0.301201 0.357623,0.589847 0.494278,0.905113 0.344411,0.794558 0.345902,1.717859 0.460627,2.564892 0.04909,0.362506 0.184363,0.704574 0.235489,1.067507 0.07405,0.52568 0.05383,1.06057 0.08022,1.588131 0.01379,0.274509 0.162916,0.512918 0.12939,0.795258 -0.02129,0.179377 -0.196559,0.778108 -0.279488,0.96721 -0.07044,0.160642 -0.216678,0.250423 -0.276892,0.422703 -0.197894,0.566189 -0.366396,1.146192 -0.600371,1.69799 -0.230618,0.543889 -0.556368,1.044123 -0.828101,1.564245 -0.129845,0.248532 -0.141372,0.55405 -0.245844,0.816754 -0.05892,0.148155 -0.729994,1.150576 -0.874679,1.323044 -0.433282,0.51648 -0.990707,0.886745 -1.495751,1.311103 -0.192903,0.162081 -0.313455,0.379228 -0.473576,0.570773 -0.133456,0.159641 -0.307224,0.274542 -0.43734,0.434647 -0.13654,0.168002 -0.238498,0.357158 -0.370051,0.527785 -0.128396,0.166516 -0.338794,0.24701 -0.432165,0.448976 -0.264008,0.571057 -0.403203,1.230091 -0.81775,1.714699 -0.619269,0.723934 -1.825364,0.987949 -2.722376,0.957657 -0.723261,-0.02441 -1.194241,-0.770095 -1.751953,-1.105719 -0.256099,-0.154118 -0.614643,-0.164497 -0.890207,-0.279414 -0.332247,-0.138565 -0.644905,-0.345894 -0.985954,-0.458528 -0.332057,-0.109678 -0.684552,-0.155666 -1.009246,-0.291362 -0.269226,-0.112524 -0.483408,-0.309311 -0.742699,-0.434647 -0.543008,-0.262468 -1.221166,-0.528913 -1.821821,-0.592262 -0.64987,-0.06853 -1.327502,0.0464 -1.90204,-0.355838 -0.178961,-0.125287 -0.323788,-0.29873 -0.481336,-0.448976 -1.175562,-1.121073 -1.880686,-2.144977 -2.572276,-3.615682 -0.08725,-0.185532 -0.226016,-0.338181 -0.310543,-0.525393 -0.137974,-0.305581 -0.184455,-0.646412 -0.315714,-0.95527 -0.171778,-0.404209 -0.473898,-0.746315 -0.639186,-1.151098 -0.140618,-0.344368 -0.120933,-0.724483 -0.240668,-1.06512 -0.112555,-0.320211 -0.29772,-0.61132 -0.408869,-0.936162 -0.241336,-0.705302 -0.495439,-1.628858 -0.569326,-2.378614 -0.113251,-1.149187 0.540719,-3.18771 0.853976,-4.313026 0.302,-1.084873 0.443229,-2.228073 1.037718,-3.197757 0.351126,-0.572725 0.954332,-0.799197 1.464697,-1.191692 0.980735,-0.754232 1.996313,-1.448221 2.960457,-2.228158 0.393854,-0.318602 0.84982,-0.575622 1.22921,-0.905117 0.854405,-0.74205 1.668723,-1.557408 2.486888,-2.340406 1.265219,-1.481943 2.278864,-1.845064 4.14826,-1.521261 z"
         id="path1704"
         sodipodi:nodetypes="csssssssssssscsssssssssssssssssssssssssssssssssscc" />
      <path
         style="fill:#fcd19b;fill-opacity:1;stroke:none;stroke-width:0.264583px;stroke-linecap:butt;stroke-linejoin:miter;stroke-opacity:1"
         d="m 56.724067,61.820489 c 0.455858,0.324893 0.900989,0.656012 1.217476,1.131194 0.190642,0.286232 0.21818,0.648575 0.346515,0.962583 0.106099,0.259588 0.283178,0.470556 0.423783,0.708597 0.14923,0.252645 0.212787,0.566479 0.36056,0.828118 0.461521,0.817146 1.182323,1.471925 1.774718,2.191956 0.267342,0.32495 0.68688,0.389237 0.957598,0.680853 0.2166,0.233324 1.275608,2.23707 1.336884,2.5676 0.117542,0.634039 -0.02576,1.284846 0.03512,1.92303 0.05383,0.564341 0.462236,1.056398 0.430806,1.61782 -0.05039,0.900103 -0.645689,1.681279 -0.718786,2.595347 -0.02137,0.267317 -0.03766,0.573692 0.04448,0.832388 0.124279,0.391371 0.378965,0.824832 0.346512,1.250718 -0.03584,0.47035 -0.307495,0.926449 -0.458899,1.368106 -0.254996,0.743846 -0.452034,1.490118 -0.917796,2.14073 -0.193188,0.26986 -0.435215,0.493527 -0.632153,0.759824 -0.258181,0.349106 -0.463135,0.727397 -0.772635,1.037281 -0.269572,0.292907 -0.621245,0.392148 -0.845209,0.659502 -0.395079,0.322884 -0.684092,0.747178 -1.074668,1.0693 -0.189761,0.156506 -0.411096,0.272269 -0.611081,0.414063 -0.15771,0.111811 -0.376335,0.427567 -0.566601,0.465282 -0.445845,0.08838 -0.896941,-0.351513 -1.283042,-0.493027 -0.426184,-0.156211 -0.812832,0.132143 -1.285375,-0.08325 -0.31937,-0.145574 -0.368143,-0.533139 -0.61342,-0.747018 -0.182511,-0.159143 -0.512707,-0.228573 -0.723465,-0.354298 -0.331966,-0.198036 -0.630629,-0.453255 -0.966968,-0.642433 -0.338476,-0.190378 -0.703603,-0.189245 -1.072322,-0.2796 -0.473101,-0.11593 -0.941044,-0.361975 -1.355622,-0.618952 -0.458656,-0.284296 -0.714044,-0.799962 -1.072318,-1.193088 -0.443108,-0.486208 -0.814067,-1.007944 -1.231528,-1.51536 -0.334867,-0.407031 -0.724244,-0.778012 -0.997396,-1.233642 -0.270473,-0.451163 -0.411149,-0.954749 -0.655565,-1.417196 -0.217584,-0.411669 -0.582007,-0.695137 -0.831171,-1.082105 -0.227649,-0.353557 -0.263992,-0.756739 -0.433141,-1.131198 -0.240155,-0.531647 -0.605067,-0.957141 -0.774979,-1.532445 -0.273835,-0.927191 0.02865,-1.904978 0.175599,-2.821585 0.08222,-0.512781 0.15462,-1.017441 0.259885,-1.526048 0.256865,-1.24108 0.118455,-2.020265 0.863948,-3.139595 0.371628,-0.55799 1.024232,-0.819188 1.571018,-1.171748 1.270051,-0.818911 2.635819,-1.479377 3.900632,-2.302944 0.258783,-0.168501 0.494486,-0.36839 0.753905,-0.535718 0.404559,-0.260937 0.847182,-0.450373 1.243234,-0.725669 0.217295,-0.151043 0.394644,-0.362675 0.618108,-0.503704 0.25289,-0.159597 0.53926,-0.224262 0.80073,-0.362834 1.496438,-1.0021 1.984489,-0.14078 2.432629,0.209165 z"
         id="path1706"
         sodipodi:nodetypes="csssssssssssssssccssssssssssssssssssssssssscc" />
      <path
         style="fill:#3e2403;fill-opacity:1;stroke:none;stroke-width:0.264583px;stroke-linecap:butt;stroke-linejoin:miter;stroke-opacity:1"
         d="m 51.030724,71.78715 c 0.219511,0.03208 0.442031,0.02013 0.660879,0.05243 0.281797,0.04158 0.548515,0.134252 0.830196,0.04752 0.273624,-0.08425 0.531426,-0.33274 0.671801,-0.5784 0.06818,-0.119319 0.07601,-0.265107 0.138366,-0.386694 0.207473,-0.404529 0.520756,-0.745998 0.753729,-1.132221 0.195154,-0.32353 0.390433,-1.071822 0.684544,-1.312458 0.09388,-0.07681 0.222956,-0.192815 0.289475,-0.294936 0.0019,-0.0027 0.05443,-0.149106 0.05462,-0.149106 0.01296,0 -0.0092,0.02424 -0.01455,0.03605 -0.04336,0.09641 -0.08327,0.196739 -0.121983,0.294936 -0.115599,0.293196 -0.140168,0.592379 -0.127442,0.904465 0.03937,0.965491 -0.277834,2.062536 0.107413,2.987035 0.01193,0.02864 0.544946,0.863121 0.560747,0.874974 0.146572,0.109929 0.311092,0.204902 0.436949,0.342453 0.166383,0.181843 0.282771,0.426149 0.462428,0.591508 0.184145,0.169487 0.408744,0.268261 0.584417,0.448953 0.199065,0.20475 0.539859,0.413012 0.775576,0.586594 0.06964,0.05128 0.15277,0.10636 0.213008,0.160576 0.02217,0.01995 0.09968,0.01207 0.08193,0.03605 -0.0067,0.009 -0.356161,-0.09934 -0.398712,-0.109781 -0.282712,-0.06938 -0.577233,-0.07488 -0.864785,-0.114697 -0.265702,-0.03679 -0.52248,-0.105209 -0.791961,-0.117972 -0.398815,-0.01889 -0.759899,-0.03701 -1.152443,0.05243 -0.488503,0.111308 -1.073407,0.243904 -1.430989,0.619363 -0.398299,0.352779 -0.404158,0.550657 -0.717317,0.173686 -0.08313,-0.174619 -0.118739,-0.350618 -0.176599,-0.5358 -0.07708,-0.246705 -0.20552,-0.474001 -0.307683,-0.71112 -0.103191,-0.239504 -0.180071,-0.497885 -0.33681,-0.709483 -0.205697,-0.277693 -0.613315,-0.561546 -0.933968,-0.694735 -0.143198,-0.05948 -0.322808,-0.09532 -0.453335,-0.181875 -0.23029,-0.152704 -0.471109,-0.353806 -0.668155,-0.547269 -0.13975,-0.13721 -0.657995,-0.810387 -0.467899,-0.886441 0.19138,-0.03381 0.993688,0.151033 1.658553,0.253965 z"
         id="path1702"
         sodipodi:nodetypes="csssssscscssssssssscssssccsssssscc" />
      <path
         style="fill:#56422b;fill-opacity:1;stroke:none;stroke-width:0.264583px;stroke-linecap:butt;stroke-linejoin:miter;stroke-opacity:1"
         d="m 62.596193,53.319642 c 1.624896,-0.06621 3.281757,-0.525782 4.857218,-0.903893 0.182502,-0.0438 0.359386,-0.138774 0.545052,-0.165725 0.759169,-0.110196 1.523252,-0.15731 2.279653,-0.291674 1.811303,-0.321749 3.169185,-1.753832 5.071205,-2.21739 1.213588,-0.295773 2.399649,-0.726401 3.634915,-0.921425 0.816901,-0.128977 1.633947,-0.200594 2.449052,-0.371221 0.522986,-0.109477 0.986631,-0.437142 1.513634,-0.540261 0.525102,-0.102748 0.986541,-0.47194 1.4952,-0.616495 0.152855,-0.04344 0.363804,-0.183724 0.368286,-0.17567 0.0053,0.0096 -0.04161,0.02141 -0.103113,0.05635 -0.104238,0.05925 -0.200501,0.132133 -0.305676,0.188929 -0.290123,0.156665 -0.565689,0.32308 -0.84705,0.493858 -0.41992,0.254881 -0.929831,0.276754 -1.399453,0.417621 -0.451871,0.135543 -0.857192,0.482581 -1.311071,0.639696 -0.47012,0.162737 -0.962731,0.24847 -1.432613,0.417629 -0.249944,0.08998 -0.638074,0.03088 -1.020127,0.175662 -0.450178,0.170598 -0.883476,0.154575 -1.329489,0.288364 -0.650738,0.195202 -1.361115,0.506254 -1.951882,0.83856 -0.45594,0.256466 -0.814641,0.64511 -1.259514,0.918115 -0.362051,0.222181 -0.793856,0.367609 -1.171133,0.573405 -0.37397,0.203991 -0.673087,0.518565 -1.045909,0.715923 -1.030573,0.545549 -2.432063,0.742447 -3.583358,0.742447 -0.406445,0 -0.797462,0.04912 -1.182174,0.182298 -0.470429,0.162848 -2.257262,0.833831 -2.257262,1.20035 -0.650621,-0.573468 -1.306494,-1.140642 -2.014391,-1.645453 z"
         id="path1865"
         sodipodi:nodetypes="cssssssssccssssssssssssscc" />
      <path
         style="fill:#5b4023;fill-opacity:1;stroke:none;stroke-width:0.264583px;stroke-linecap:butt;stroke-linejoin:miter;stroke-opacity:1"
         d="m 67.655422,58.85011 c 0.611,-0.290972 1.422751,-0.452278 2.048181,-0.696993 0.763746,-0.298839 1.451427,-0.763702 2.209665,-1.073894 0.446415,-0.182626 0.915344,-0.282453 1.373682,-0.424256 0.760762,-0.235366 1.489697,-0.578229 2.250191,-0.821989 0.783328,-0.251079 1.622507,-0.371764 2.419591,-0.576721 0.389239,-0.100086 0.756938,-0.26558 1.145347,-0.367903 0.763217,-0.201065 1.806864,-0.587679 2.595286,-0.65214 0.06111,-0.005 0.426013,-0.125455 0.557187,-0.09031 0.118046,0.03163 -1.193554,0.684392 -1.255837,0.715925 -0.70109,0.354963 -1.452192,0.619901 -2.15443,0.981091 -0.601846,0.309555 -1.315757,0.376873 -1.915057,0.725871 -0.689028,0.401254 -1.303052,0.962195 -1.985018,1.382136 -0.801582,0.493599 -1.68629,0.811895 -2.570586,1.130242 -0.260863,0.09391 -0.546746,0.02474 -0.813898,0.03977 -0.576019,0.03242 -1.262142,0.293494 -1.730915,0.609865 -0.203549,0.137374 -0.681857,0.470361 -0.856642,0.693319 -0.01744,0.02225 -0.268712,0.402278 -0.382901,0.19686 -0.300327,-0.550359 -0.417097,-0.765655 -0.631173,-1.143926 z"
         id="path1867"
         sodipodi:nodetypes="cssssssssssssssssccc" />
      <path
         style="fill:#654826;stroke:none;stroke-width:0.264583px;stroke-linecap:butt;stroke-linejoin:miter;stroke-opacity:1;fill-opacity:1"
         d="m 99.847248,54.46741 c 1.349562,-0.122423 2.618442,-0.670634 3.881652,-1.130234 0.26837,-0.09764 0.56445,-0.134686 0.82495,-0.251904 0.6296,-0.283303 1.28553,-0.659866 1.94451,-0.861761 1.60282,-0.491062 3.14305,-1.143514 4.71398,-1.723531 0.36795,-0.135858 0.74431,-0.191928 1.11588,-0.30825 0.88939,-0.278421 1.81296,-0.641315 2.67002,-1.010917 1.1597,-0.500105 2.15334,-1.413357 3.34399,-1.862738 0.93573,-0.353171 1.98932,-0.668483 2.98673,-0.78553 0.44639,-0.05238 0.88855,0.02567 1.33686,-0.04972 0.91027,-0.153046 1.81005,-0.358992 2.72158,-0.507119 0.21512,-0.03496 0.49652,-0.17898 0.69604,-0.17898 0.10975,0 -0.21001,0.06605 -0.30935,0.112694 -0.22739,0.10677 -0.48177,0.183578 -0.70341,0.308244 -0.72696,0.408885 -1.5372,0.479947 -2.29438,0.802103 -0.54274,0.230918 -0.91855,0.546926 -1.40315,0.858452 -0.27984,0.1799 -0.61598,0.305784 -0.90595,0.477284 -1.26569,0.748559 -3.36019,1.269661 -4.80605,1.63404 -0.93797,0.236382 -1.95084,0.467752 -2.84312,0.851821 -0.48063,0.206883 -0.91296,0.503335 -1.39946,0.689417 -0.77029,0.294629 -1.61669,0.516795 -2.34962,0.901533 -0.45282,0.237699 -0.85284,0.583549 -1.31107,0.82531 -0.52631,0.277669 -1.07674,0.507137 -1.59833,0.792162 -0.46472,0.253952 -0.93697,0.724241 -1.47681,0.808733 -0.81045,0.126844 -1.57825,0.304414 -2.40117,0.348023 -0.84943,0.04501 -1.46788,-0.137242 -2.390131,0.08617 -0.577239,0.139835 -1.14957,0.280379 -1.708817,0.473974 -0.248171,0.08591 -0.478282,0.194273 -0.721828,0.291675 -0.139907,0.05595 -0.281276,0.108201 -0.416153,0.175664 -0.02712,0.01357 -0.112361,0.02072 -0.08471,0.03314 0.169219,0.07608 2.145617,-1.097404 2.368034,-1.219724 0.101478,-0.05581 0.416184,-0.09971 0.449305,-0.241956 0.02609,-0.112085 0.04665,-0.225388 0.06997,-0.338082 z"
         id="path1871" />
      <path
         style="fill:#56422b;fill-opacity:1;stroke:none;stroke-width:0.264583px;stroke-linecap:butt;stroke-linejoin:miter;stroke-opacity:1"
         d="m 149.73179,33.345795 c -1.55947,0.737788 -3.06374,2.310994 -4.65988,2.998035 -0.72511,0.312113 -1.56668,0.365165 -2.29437,0.656265 -0.36354,0.145431 -0.81059,0.199734 -1.15271,0.384476 -0.20919,0.112962 -0.52035,0.404003 -0.75498,0.434203 -0.13843,0.01781 -0.24802,0.12533 -0.37932,0.159094 -0.0112,0.0029 -0.15188,0.02162 -0.14363,0.03646 0.0282,0.05069 0.11153,-0.03592 0.16941,-0.03977 0.38005,-0.02535 0.74712,-0.08901 1.12693,-0.116007 0.60642,-0.0431 1.20835,-0.09657 1.81562,-0.119322 0.59303,-0.02222 1.18331,0.09876 1.77879,-0.0033 0.64665,-0.110847 1.26722,-0.440772 1.86717,-0.692727 0.70814,-0.297386 1.39366,-0.514027 2.12129,-0.739134 0.22354,-0.06916 1.2492,-0.154734 1.38841,0.03315 0.0319,0.043 0.2442,-0.0605 0.19222,-0.04774 -0.28595,-0.746286 -0.73595,-2.226993 -1.07495,-2.943687 z"
         id="path1873"
         sodipodi:nodetypes="csssssscsssssccc" />
      <path
         style="fill:#372916;stroke:none;stroke-width:0.264583px;stroke-linecap:butt;stroke-linejoin:miter;stroke-opacity:1;fill-opacity:1"
         d="m 124.37464,60.105345 c 1.07628,-0.564298 2.41532,-0.465823 3.46919,-1.090467 0.98633,-0.584616 2.07383,-1.089144 3.14142,-1.49483 0.2776,-0.105489 0.51558,-0.310523 0.81389,-0.381167 0.11005,-0.02606 0.79916,-0.231862 0.79916,-0.255214 0,-0.01826 -0.0303,0.02164 -0.0479,0.02651 -0.10411,0.02884 -0.21836,0.06552 -0.31302,0.119324 -0.51226,0.291153 -0.76143,0.280662 -1.23006,0.732499 -0.66877,0.644811 -1.66888,0.942356 -2.51166,1.276078 -0.92626,0.366773 -1.86656,0.717351 -2.85416,0.888283 -0.26836,0.04645 -1.10728,0.128421 -1.26688,0.17898 -0.20419,0.06468 -0.37815,0.201461 -0.57084,0.294986 -0.35633,0.172961 -0.81185,0.158023 -1.18954,0.278419 -0.45026,0.143528 -0.91999,0.308856 -1.38104,0.401053 -0.0392,0.0078 -0.0948,0.0714 -0.11417,0.03646 -0.0582,-0.104852 0.23689,-0.03856 0.35354,-0.06629 0.31013,-0.07373 0.62472,-0.129956 0.92807,-0.228701 0.67232,-0.218852 1.30239,-0.532561 1.97398,-0.715925 z"
         id="path1875" />
      <path
         style="fill:#372916;stroke:none;stroke-width:0.264583px;stroke-linecap:butt;stroke-linejoin:miter;stroke-opacity:1;fill-opacity:1"
         d="m 82.313475,74.152121 c 1.556755,-1.376018 3.445608,-2.077151 5.369504,-2.711251 0.999929,-0.329568 1.991426,-0.781473 3.012522,-1.044059 1.666774,-0.42863 3.35072,-0.761762 5.023339,-1.14681 0.478002,-0.11004 2.193679,-0.789739 2.570584,-1.067263 0.04441,-0.0327 0.460346,-0.222205 0.460346,-0.258532 0,-0.177845 -1.349614,0.702468 -1.362628,0.7093 -0.243692,0.127939 -0.429551,0.335955 -0.666584,0.473969 -0.238651,0.138954 -0.555717,0.190405 -0.810223,0.304932 -0.571608,0.257223 -1.157433,0.620446 -1.764051,0.782217 -1.550829,0.413578 -3.164676,0.814274 -4.640321,1.478262 -0.824383,0.370945 -1.632121,0.849373 -2.393807,1.329102 -0.761722,0.479751 -1.957332,0.861933 -2.802609,1.213107 -0.405614,0.168516 -0.722926,0.537424 -1.134303,0.722548 -0.257313,0.115792 -0.538806,-0.0083 -0.806524,0 -0.264954,0.0083 -0.552509,0.09519 -0.817589,0.129275 -0.751152,0.09658 -1.483321,0.02872 -2.224395,0.102749 -0.240151,0.024 -0.550579,0.0264 -0.784439,0.08949 -0.152191,0.04106 -0.332586,0.02986 -0.478763,0.08618 -0.0059,0.0024 -0.07794,0.03449 -0.06997,0.01656 0.06706,-0.150964 0.851493,-0.369684 1.012772,-0.434198 1.041244,-0.416496 2.160294,-1.148008 3.307144,-0.775586 z"
         id="path1877" />
      <path
         style="fill:#56422b;fill-opacity:1;stroke:none;stroke-width:0.264583px;stroke-linecap:butt;stroke-linejoin:miter;stroke-opacity:1"
         d="m 145.79636,28.639419 c -0.30827,0.02642 -0.86157,0.10106 -1.25844,0.356208 -0.41841,0.268986 -0.91493,0.457398 -0.87283,0.457398 0.0119,0 -0.22353,0.03332 -0.25043,0.0696 -0.11995,0.161983 -0.34571,0.231963 -0.54505,0.261843 -0.36438,0.05461 -0.89281,0.335417 -1.32212,0.513746 -1.21292,0.503828 -2.27836,1.276035 -3.51338,1.756675 -1.14053,0.44386 -2.39952,0.631404 -3.60178,0.851821 -0.6238,0.114366 -1.25033,0.205184 -1.86718,0.354652 -0.22036,0.05336 -0.44594,0.04524 -0.67025,0.05966 -0.0785,0.0051 -0.29421,0.06591 -0.23571,0.01326 0.32758,-0.294888 1.48262,-0.485092 2.03658,-0.659585 0.50758,-0.159882 0.95086,-0.377833 1.45839,-0.553519 0.37714,-0.13055 0.7949,-0.164782 1.18217,-0.251902 0.56697,-0.127545 1.06105,-0.49127 1.53942,-0.798787 0.38803,-0.249447 0.82812,-0.391703 1.23742,-0.599924 0.44242,-0.225071 0.81276,-0.581819 1.28161,-0.775589 0.182,-0.07522 0.37319,-0.125951 0.55978,-0.188921 1.20324,-0.325787 2.38134,-0.736934 3.41763,-1.415286 0.16808,-0.110022 0.40784,-0.406399 0.51648,-0.286077 0.3256,0.237377 0.6101,0.547653 0.90769,0.834727 z"
         id="path1879"
         sodipodi:nodetypes="csscsssscccsssssscscc" />
      <path
         style="fill:#2f281e;fill-opacity:1;stroke:none;stroke-width:0.264583px;stroke-linecap:butt;stroke-linejoin:miter;stroke-opacity:1"
         d="m 148.94066,58.048668 c -0.38957,-0.09915 -0.83156,0.104401 -1.20608,0.12765 -0.44128,0.02739 -0.81229,-0.05063 -1.27793,0.05966 -0.43045,0.101957 -0.84086,0.527592 -1.18586,0.62312 -0.81859,0.226658 -1.50446,0.901578 -2.28701,1.239618 -0.386,0.166743 -0.78406,0.335613 -1.16745,0.470657 -0.0402,0.01415 -0.11785,0.0071 -0.11785,0.04972 0,0.07804 1.2139,0.0087 1.37736,-0.05966 0.56508,-0.236141 1.47175,-0.260072 2.10287,-0.440825 0.2937,-0.08411 0.66306,-0.192548 0.95386,-0.301614 0.14571,-0.05465 0.26806,-0.177131 0.39037,-0.26516 0.14734,-0.106059 0.65313,-0.142529 0.81757,-0.142529 0.31338,0 0.51413,0.06338 0.66119,-0.09883 z"
         id="path1881"
         sodipodi:nodetypes="csssssscsssscc" />
      <path
         style="fill:#563c1d;stroke:none;stroke-width:0.264583px;stroke-linecap:butt;stroke-linejoin:miter;stroke-opacity:1;fill-opacity:1"
         d="m 126.05398,31.159981 c 0.27554,-0.06722 0.92428,0.374055 1.48417,0.285041 0.31389,-0.0499 0.64591,-0.161943 0.96121,-0.18561 0.33442,-0.02511 0.64165,0.02069 0.97594,-0.0696 0.20969,-0.05663 0.6171,-0.218927 0.65186,0.07292 l -8.7e-4,0.06953 c 0.0781,0.738314 -0.43898,0.814548 -0.78867,1.379218 -0.0861,0.139088 -0.19417,0.288145 -0.23697,0.447645 -0.0394,0.14693 -0.0643,0.303551 -0.11719,0.446473 -0.0676,0.182609 -0.22201,0.353244 -0.32031,0.519128 -0.18686,0.315347 -0.42301,0.345668 -0.66795,0.54608 -0.27679,0.22647 -0.56333,0.466754 -0.85676,0.667953 -0.12021,0.08242 -0.20686,0.263082 -0.32291,0.374991 -0.3001,0.289383 -0.617,0.553353 -0.95181,0.833181 -0.13699,0.11449 -0.58794,0.31716 -0.65624,0.460536 -0.1069,0.224465 -0.27205,0.489789 -0.34375,0.747639 -0.0302,0.107888 0.004,0.40806 -0.008,0.41366 -0.0878,0.03951 -0.33497,-0.02188 -0.46093,-0.01055 -0.18317,0.01647 -0.36185,0.0709 -0.54166,0.08437 -0.42145,0.03158 -0.85049,-0.02449 -1.26951,-0.04804 -0.13618,-0.0077 -0.26827,0.03621 -0.40494,0.03281 -0.11419,-0.0029 -0.22738,-0.04336 -0.34245,-0.04336 -0.62156,0 -1.25038,0.02826 -1.87106,0.06211 -0.21246,0.01159 -0.4194,0.07197 -0.6289,0.104293 -0.71717,0.110645 -1.39455,0.355374 -2.09632,0.523816 -0.15931,0.03823 -0.31645,0.01566 -0.47786,0.02226 -0.32974,0.0135 -0.66843,0.04994 -0.99868,0.07617 -0.48205,0.03829 -0.95311,0.200405 -1.43357,0.230855 -0.67302,0.04265 -1.33722,-0.04821 -2.00648,-0.07734 -0.42029,-0.01829 -0.84625,0.02726 -1.26691,0.03516 -0.32743,0.0061 -0.65286,-0.02729 -0.97915,-0.02109 -0.74269,0.01421 -1.46716,0.189145 -2.21611,0.155855 -0.20019,-0.0089 -0.39569,-0.04898 -0.59504,-0.06094 -0.1526,-0.0092 -0.29496,0.0067 -0.44791,-0.02461 -0.39131,-0.08004 -0.73276,-0.13709 -1.1315,-0.17695 -0.16239,-0.01623 -0.34611,-0.04807 -0.5104,-0.02695 -0.0727,0.0093 -0.32348,0.0177 -0.36328,0.04453 -0.13466,0.09087 -0.74526,0.350944 -0.90754,0.396084 -0.2987,0.08309 -0.61272,0.121262 -0.91795,0.160542 -0.0897,0.01153 -0.21128,0.08261 -0.30208,0.110154 -0.30901,0.09374 -0.60746,0.177186 -0.91145,0.282415 -0.17277,0.05981 -0.3648,0.07323 -0.53514,0.137106 -0.0668,0.02505 -0.1247,0.08326 -0.1875,0.117185 -0.089,0.04805 -0.19555,0.05535 -0.28385,0.106639 -0.18137,0.105414 -0.40406,0.256241 -0.60546,0.318741 -0.14904,0.04627 -0.296263,0.03502 -0.454803,0.05217 1.098533,-0.528764 2.210573,-1.029374 3.299783,-1.554493 0.45573,-0.219715 1.95941,-1.305976 2.90178,-2.726884 5.49326,-1.667911 14.77469,-1.528844 20.14508,-5.290927 z"
         id="path1904"
         sodipodi:nodetypes="csssccsccsssssscsssssssscssssscssssscssssssccccccc" />
      <path
         style="fill:#3f2913;fill-opacity:1;stroke:none;stroke-width:0.264583px;stroke-linecap:butt;stroke-linejoin:miter;stroke-opacity:1"
         d="m 107.19073,36.937119 c 0.84945,0.07645 1.69016,0.10051 2.53745,0.202186 0.85574,0.102688 1.82115,0.05299 2.68106,0.03314 2.85584,-0.0659 5.59089,-0.105592 8.3047,-1.126921 0.29875,-0.112435 0.60219,-0.209651 0.8986,-0.321509 0.2223,-0.08389 0.4437,-0.148526 0.65553,-0.258524 0.20146,-0.104611 0.40267,-0.213431 0.60766,-0.311563 0.15126,-0.07241 0.29707,-0.150579 0.44194,-0.235328 0.28596,-0.16727 0.60491,-0.291468 0.88386,-0.464026 0.32426,-0.200581 2.36506,-1.858841 2.25756,-2.197505 -0.52016,-1.638723 -1.16511,-1.043324 -2.72158,-1.421911 -0.55996,-0.136199 -1.16854,-0.201549 -1.70881,-0.40105 -0.3805,-0.140499 -0.78388,-0.516189 -1.19323,-0.546891 -0.88607,-0.06645 -1.94318,0.798063 -2.95736,0.798063 -0.0698,0 -0.15181,0.356609 -0.22138,0.354692 -0.0816,-0.0022 -0.36555,-0.344601 -0.44687,-0.348853 -0.67168,-0.03512 -1.17709,-0.151591 -1.85806,-0.107865 -1.19475,0.07672 -3.07506,0.751768 -4.08791,1.348994 -0.91402,0.538956 -1.93382,1.111702 -2.71053,1.849482 -0.22054,0.209484 -0.56009,0.313058 -0.81022,0.470654 -0.39134,0.246576 -0.97333,0.909511 -1.28161,1.256186 -0.38114,0.428628 -0.92873,1.203873 0.0663,1.063953 z"
         id="path1902"
         sodipodi:nodetypes="ssccsssssssssssssssssss" />
      <path
         style="fill:#e3ae70;fill-opacity:1;stroke:none;stroke-width:0.264583px;stroke-linecap:butt;stroke-linejoin:miter;stroke-opacity:1"
         d="m 108.42759,36.627565 c 0.72006,0.224737 1.49451,0.09126 2.24372,0.183574 0.75668,0.09323 1.61032,0.04812 2.3707,0.03009 2.52524,-0.05983 4.9437,-0.09587 7.34336,-1.023183 0.26416,-0.102085 0.53247,-0.190353 0.79458,-0.291913 0.19656,-0.07616 0.39233,-0.134854 0.57964,-0.234726 0.17814,-0.09498 0.35606,-0.193783 0.53732,-0.282883 0.13375,-0.06575 0.26268,-0.136717 0.39078,-0.213665 0.25286,-0.151871 0.53488,-0.264637 0.78154,-0.421311 0.28673,-0.182116 2.09129,-1.687727 1.99623,-1.995216 -0.45994,-1.487872 -1.03023,-0.947282 -2.40653,-1.291018 -0.49514,-0.123662 -1.03327,-0.182996 -1.51101,-0.364133 -0.33644,-0.127565 -0.5194,-0.315149 -0.88136,-0.343025 -0.78351,-0.06033 -1.67874,0.718255 -2.57552,0.718255 -0.0716,0 -0.35338,0.26418 -0.42478,0.261873 -0.0645,-0.0021 -0.53488,-0.317593 -0.59925,-0.321093 -0.59151,-0.03217 -1.16898,-0.06243 -1.76872,-0.02289 -1.05645,0.06965 -2.37344,0.524863 -3.26904,1.067113 -0.80822,0.489342 -1.70998,1.009365 -2.39677,1.679229 -0.19501,0.190201 -0.49525,0.284241 -0.71643,0.427329 -0.34604,0.223878 -1.18906,0.871369 -1.46165,1.186131 -0.33702,0.389172 -0.78999,0.701163 0.0586,0.966012 z"
         id="path1902-0"
         sodipodi:nodetypes="ssccsssssssssssssssssss" />
      <path
         style="fill:#fcd19b;stroke:none;stroke-width:0.264583px;stroke-linecap:butt;stroke-linejoin:miter;stroke-opacity:1;fill-opacity:1"
         d="m 116.35468,31.69521 c -0.17032,-0.0033 -0.32087,0.119306 -0.48479,0.158308 -0.17164,0.04084 -0.30946,-0.01511 -0.50073,0.0331 -0.17464,0.04401 -0.34144,0.126833 -0.51115,0.186436 -0.18409,0.06466 -0.37775,0.120488 -0.56692,0.168788 -0.28074,0.07168 -0.57406,0.09213 -0.8513,0.178165 -0.21294,0.06608 -0.38625,0.192011 -0.58714,0.282414 -0.15576,0.07009 -0.3071,0.148288 -0.4615,0.220085 -0.0381,0.0177 -0.0776,0.0304 -0.11216,0.05516 -0.13154,0.09422 -0.26626,0.208499 -0.37999,0.323233 -0.0691,0.06968 -0.1187,0.156951 -0.19061,0.223946 -0.0872,0.08128 -0.19021,0.141814 -0.2758,0.2256 -0.0881,0.08624 -0.15106,0.190979 -0.23351,0.281313 -0.15224,0.166793 -0.33474,0.319428 -0.50869,0.462785 -0.11471,0.09453 -0.23325,0.155445 -0.3567,0.234426 -0.16842,0.107744 -0.33678,0.206169 -0.51054,0.30503 -0.11284,0.0642 -0.24015,0.08622 -0.34444,0.167685 -0.0617,0.0482 -0.20454,0.196922 -0.13851,0.28407 0.0689,0.09095 0.22854,0.134292 0.33463,0.132382 0.0921,-0.0016 0.18493,-0.03063 0.27703,-0.0182 0.12898,0.01741 0.25365,0.04597 0.38428,0.0524 0.14271,0.007 0.28364,-0.01431 0.42595,-0.01159 0.20689,0.004 0.41568,0.03898 0.6227,0.01159 0.17758,-0.02349 0.34198,-0.08597 0.51543,-0.123558 0.084,-0.0182 0.17168,-0.01892 0.25619,-0.03585 0.11563,-0.02318 0.22993,-0.0516 0.34689,-0.06784 0.17818,-0.02474 0.35632,0.04581 0.53628,0.03585 0.44698,-0.02471 0.89407,-0.0471 1.34161,-0.06178 0.20656,-0.0068 0.41271,-0.03167 0.61962,-0.02593 0.22931,0.0064 0.45836,0.01116 0.68766,0.01656 0.25205,0.0059 0.50852,0.04033 0.76059,0.0088 0.20197,-0.02524 0.40989,-0.08713 0.61534,-0.117488 0.13157,-0.01945 0.26205,-0.02207 0.39409,-0.03365 0.0782,-0.0069 0.15436,-0.02873 0.23228,-0.0353 0.0846,-0.0071 0.17235,0.0043 0.25618,-0.0099 0.093,-0.01574 0.18432,-0.03986 0.27764,-0.05461 0.0709,-0.01119 0.14382,-0.0059 0.21451,-0.01876 0.23509,-0.04264 0.47416,-0.08782 0.70298,-0.158305 0.15591,-0.04803 0.30795,-0.114557 0.4658,-0.156102 0.0848,-0.0223 0.17092,-0.03742 0.25496,-0.06288 0.0944,-0.02861 0.17768,-0.08605 0.27089,-0.118041 0.0778,-0.02671 0.15946,-0.0372 0.23842,-0.06012 0.0962,-0.02794 0.18869,-0.07017 0.2807,-0.109214 0.13934,-0.05913 0.28466,-0.104913 0.42228,-0.168236 0.0665,-0.03063 0.13719,-0.05885 0.19918,-0.09818 0.0884,-0.05608 0.171,-0.136009 0.27029,-0.172649 0.18613,-0.06868 0.37844,-0.11862 0.55711,-0.207949 0.0878,-0.04391 0.1678,-0.101626 0.25557,-0.145621 0.0896,-0.0449 0.19006,-0.07488 0.2758,-0.126865 0.0768,-0.04657 0.14643,-0.107387 0.22922,-0.143965 0.0773,-0.03414 0.16554,-0.0531 0.23841,-0.09598 0.13762,-0.08098 0.26642,-0.176366 0.40451,-0.257043 0.19818,-0.115787 0.38879,-0.221411 0.53627,-0.401558 0.059,-0.07205 0.13758,-0.195924 0.076,-0.290139 -0.0495,-0.0757 -0.18327,-0.04452 -0.25557,-0.06729 -0.10455,-0.03293 -0.20344,-0.0999 -0.30828,-0.126865 -0.30215,-0.07769 -0.61538,-0.09117 -0.92117,-0.143415 -0.0427,-0.0073 -0.081,-0.02893 -0.12074,-0.04468 -0.0742,-0.02938 -0.15228,-0.04797 -0.22615,-0.07777 -0.081,-0.03266 -0.15638,-0.07575 -0.24148,-0.09763 -0.33778,-0.08685 -0.70001,-0.153871 -1.04987,-0.163272 -0.18777,-0.0051 -0.37131,0.03593 -0.55834,0.01876 -0.24537,-0.02254 -0.47442,-0.142864 -0.72076,-0.142864 -0.11664,0 -0.23052,0.03735 -0.3426,0.06509 -0.0844,0.02088 -0.17122,0.03003 -0.25435,0.05682 -0.11323,0.03648 -0.22122,0.08781 -0.33402,0.125209 -0.15864,0.0526 -0.32064,0.08023 -0.48541,0.09708 -0.0919,0.0094 -0.17734,0.03696 -0.27089,0.03861 -0.072,0.0013 -0.14991,0.0078 -0.22125,-0.0028 -0.10056,-0.01484 -0.19501,-0.08372 -0.29603,-0.09818 -0.0849,-0.01217 -0.17148,-0.0118 -0.2568,-0.0182 -0.0794,-0.006 -0.15837,-0.02611 -0.2378,-0.02758 -0.0674,-0.0013 -0.14386,0.01106 -0.21022,0.0011 -0.14486,-0.02172 -0.30967,-0.10654 -0.45108,-0.05295 z"
         id="path1930" />
      <path
         style="fill:#3e2403;stroke:none;stroke-width:0.264583px;stroke-linecap:butt;stroke-linejoin:miter;stroke-opacity:1;fill-opacity:1"
         d="m 114.34134,33.7229 c 0.3945,0.07807 0.6899,-0.172596 1.04804,-0.27028 0.07,-0.0191 0.14639,-0.0079 0.21573,-0.02868 0.46502,-0.139486 0.62896,-0.196615 0.8225,-0.632127 0.0192,-0.04322 0.1189,-0.180517 0.1189,-0.206295 0,-2.65e-4 -0.007,0.01206 -0.007,0.01545 -0.0107,0.04588 -0.0132,0.09671 -0.0184,0.143415 -0.0119,0.107066 -0.0533,0.290007 0.0123,0.388321 0.0513,0.07693 0.24828,0.03417 0.32115,0.03089 0.22561,-0.01013 0.43129,-0.112024 0.65947,-0.121351 0.10129,-0.0041 0.20981,-0.02746 0.31012,-0.02318 0.11917,0.0051 0.27664,0.05477 0.39592,0.0011 0.0994,-0.04474 0.19992,-0.05977 0.30155,-0.08384 0.0134,-0.0032 0.11399,-0.0081 0.11399,-0.01434 0,-0.0061 -0.0108,0.0055 -0.0159,0.0088 -0.0459,0.0295 -0.0526,0.03509 -0.11031,0.05516 -0.13773,0.04789 -0.26431,0.127143 -0.40206,0.169889 -0.16158,0.05014 -0.89799,0.245565 -0.97081,0.311097 -0.0213,0.01916 -0.0529,0.03235 -0.0711,0.05957 -0.0538,0.0808 0.47674,0.348091 0.37753,0.392734 -0.0534,0.02405 -0.10391,0.07023 -0.16057,0.08936 -0.0155,0.0052 -0.26658,-0.09402 -0.36896,-0.08826 -0.0922,0.0052 -0.18309,-0.0088 -0.27335,-0.0088 -0.0371,0 -0.14745,0.01545 -0.11031,0.01545 0.002,0 -0.0735,-0.0081 -0.13607,-0.03972 -0.0662,-0.03351 -0.13575,-0.0868 -0.21328,-0.09377 -0.38588,-0.0347 -1.18996,0.316182 -1.51505,0.169889 -0.12893,-0.05801 -0.21134,-0.150807 -0.32361,-0.240496 z"
         id="path1932" />
    </g>
  </g>
</svg>
