<?xml version="1.0" encoding="UTF-8" standalone="no"?>
<svg
   xmlns:dc="http://purl.org/dc/elements/1.1/"
   xmlns:cc="http://creativecommons.org/ns#"
   xmlns:rdf="http://www.w3.org/1999/02/22-rdf-syntax-ns#"
   xmlns:svg="http://www.w3.org/2000/svg"
   xmlns="http://www.w3.org/2000/svg"
   xmlns:sodipodi="http://sodipodi.sourceforge.net/DTD/sodipodi-0.dtd"
   xmlns:inkscape="http://www.inkscape.org/namespaces/inkscape"
   width="123.20178mm"
   height="110.48383mm"
   viewBox="0 0 123.20178 110.48383"
   version="1.1"
   id="svg2185"
   inkscape:version="1.0.1 (3bc2e813f5, 2020-09-07)"
   sodipodi:docname="water_ripples.svg">
  <defs
     id="defs2179" />
  <sodipodi:namedview
     id="base"
     pagecolor="#ffffff"
     bordercolor="#666666"
     borderopacity="1.0"
     inkscape:pageopacity="0.0"
     inkscape:pageshadow="2"
     inkscape:zoom="0.98994949"
     inkscape:cx="66.061965"
     inkscape:cy="203.20604"
     inkscape:document-units="mm"
     inkscape:current-layer="layer1"
     inkscape:document-rotation="0"
     showgrid="false"
     inkscape:window-width="2560"
     inkscape:window-height="1376"
     inkscape:window-x="0"
     inkscape:window-y="27"
     inkscape:window-maximized="1" />
  <metadata
     id="metadata2182">
    <rdf:RDF>
      <cc:Work
         rdf:about="">
        <dc:format>image/svg+xml</dc:format>
        <dc:type
           rdf:resource="http://purl.org/dc/dcmitype/StillImage" />
        <dc:title></dc:title>
      </cc:Work>
    </rdf:RDF>
  </metadata>
  <g
     inkscape:label="Layer 1"
     inkscape:groupmode="layer"
     id="layer1"
     transform="translate(-25.333632,-24.889038)">
    <path
       style="fill:#636363;fill-opacity:0.536309;stroke:none;stroke-width:0.264583px;stroke-linecap:butt;stroke-linejoin:miter;stroke-opacity:1"
       d="m 68.381141,56.508173 c 0.72994,-0.35841 1.61826,-0.63261 2.03268,-1.15877 0.64251,0.65557 1.45599,1.29198 2.48582,1.21021 0.97234,-0.0772 1.93079,-0.51829 2.46748,-1.20203 0.96139,0.39844 1.77628,1.17906 3.04052,1.10604 1.053809,-0.0609 2.310832,-0.3153 2.968461,-1.10045 0.11802,0.6668 1.315451,0.97394 2.100408,1.26151 -0.714999,-0.16958 -1.436549,-0.1523 -2.222658,-0.54299 -0.991622,0.36404 -1.92064,0.51899 -2.875672,0.53522 -0.93313,0.0159 -1.801249,-0.15696 -2.993269,-0.55134 -0.75839,0.34012 -0.92925,0.652641 -2.41579,0.64378 -0.86468,-0.005 -1.21643,0.10577 -2.54061,-0.77207 -0.80242,0.40299 -1.52034,0.43459 -2.04737,0.57089 z"
       id="path1672-6"
       sodipodi:nodetypes="ccscscccscscc" />
    <path
       style="fill:#636363;fill-opacity:0.536309;stroke:none;stroke-width:0.264583px;stroke-linecap:butt;stroke-linejoin:miter;stroke-opacity:1"
       d="m 98.616673,76.558903 c 0.729937,-0.358399 1.618257,-0.632611 2.032677,-1.158759 0.64251,0.655569 1.45599,1.291979 2.48582,1.210199 0.97234,-0.0772 1.93079,-0.518289 2.46748,-1.202028 0.96139,0.398438 1.77628,1.17906 3.04052,1.106037 1.05381,-0.0609 2.31083,-0.315298 2.96846,-1.100439 0.11802,0.66679 1.31545,0.973932 2.10041,1.261499 -0.715,-0.169579 -1.43655,-0.152299 -2.22266,-0.542978 -0.99162,0.36403 -1.92064,0.518981 -2.87567,0.53521 -0.93313,0.0159 -1.80125,-0.156951 -2.99327,-0.551331 -0.75839,0.34012 -0.92925,0.65264 -2.41579,0.643771 -0.86468,-0.005 -1.21643,0.10577 -2.54061,-0.772059 -0.802418,0.402979 -1.520339,0.434578 -2.047367,0.570878 z"
       id="path1672-9-1"
       sodipodi:nodetypes="ccscscccscscc" />
    <path
       style="fill:#636363;fill-opacity:0.536309;stroke:none;stroke-width:0.264583px;stroke-linecap:butt;stroke-linejoin:miter;stroke-opacity:1"
       d="m 49.176451,97.520961 c 0.72994,-0.358399 1.61826,-0.632608 2.03268,-1.158758 0.64251,0.655571 1.45599,1.291978 2.48582,1.210198 0.97234,-0.0772 1.93079,-0.518289 2.46748,-1.202028 0.96139,0.398442 1.77628,1.179058 3.04052,1.106038 1.05381,-0.0609 2.31083,-0.315299 2.96846,-1.100439 0.11802,0.666792 1.31545,0.973939 2.10041,1.261519 -0.715,-0.16959 -1.43655,-0.15231 -2.22266,-0.542998 -0.99162,0.364028 -1.92064,0.518988 -2.87567,0.535208 -0.93313,0.0159 -1.80125,-0.15695 -2.99327,-0.551327 -0.75839,0.340117 -0.92925,0.652637 -2.41579,0.643767 -0.86468,-0.005 -1.21643,0.10577 -2.54061,-0.772058 -0.80242,0.402988 -1.52034,0.434588 -2.04737,0.570878 z"
       id="path1672-2-0"
       sodipodi:nodetypes="ccscscccscscc" />
    <path
       style="fill:#636363;fill-opacity:0.536309;stroke:none;stroke-width:0.264583px;stroke-linecap:butt;stroke-linejoin:miter;stroke-opacity:1"
       d="m 96.773842,53.274753 c 0.72994,-0.3584 1.61826,-0.63261 2.03268,-1.15876 0.642509,0.65557 1.455988,1.29198 2.485818,1.2102 0.97234,-0.0772 1.93079,-0.51829 2.46748,-1.20203 0.96139,0.39844 1.77628,1.17906 3.04052,1.10604 1.05381,-0.0609 2.31083,-0.3153 2.96846,-1.10044 0.11802,0.66679 1.31545,0.97393 2.10041,1.26151 -0.715,-0.16959 -1.43655,-0.15231 -2.22266,-0.54299 -0.99162,0.36403 -1.92064,0.51898 -2.87567,0.53521 -0.93313,0.0159 -1.80125,-0.15695 -2.99327,-0.55133 -0.75839,0.34012 -0.92925,0.65264 -2.41579,0.64377 -0.86468,-0.005 -1.21643,0.10577 -2.540609,-0.77206 -0.80242,0.40299 -1.52034,0.43459 -2.047369,0.57088 z"
       id="path1672-0-6"
       sodipodi:nodetypes="ccscscccscscc" />
    <path
       style="fill:#636363;fill-opacity:0.536309;stroke:none;stroke-width:0.264583px;stroke-linecap:butt;stroke-linejoin:miter;stroke-opacity:1"
       d="m 73.688301,105.86368 c 0.72994,-0.35841 1.61826,-0.63262 2.032679,-1.15877 0.642512,0.65558 1.455992,1.29199 2.485822,1.21021 0.972338,-0.0772 1.930788,-0.51829 2.46748,-1.20204 0.96139,0.39845 1.77628,1.17906 3.04052,1.10605 1.053809,-0.0609 2.310829,-0.31531 2.968458,-1.10045 0.11802,0.6668 1.315451,0.97393 2.100411,1.2615 -0.714999,-0.16957 -1.43655,-0.15229 -2.222659,-0.54298 -0.991621,0.36403 -1.920642,0.51898 -2.875671,0.53521 -0.93313,0.0159 -1.801249,-0.15694 -2.993269,-0.55132 -0.758391,0.34012 -0.929251,0.65264 -2.415791,0.64376 -0.864679,-0.005 -1.21643,0.10577 -2.540608,-0.77206 -0.802422,0.40298 -1.520342,0.43459 -2.047372,0.57089 z"
       id="path1672-23-1"
       sodipodi:nodetypes="ccscscccscscc" />
    <path
       style="fill:#636363;fill-opacity:0.536309;stroke:none;stroke-width:0.264583px;stroke-linecap:butt;stroke-linejoin:miter;stroke-opacity:1"
       d="m 71.980831,79.616544 c 2.24756,-0.246142 3.47885,-0.826971 3.2228,-1.942301 0.72973,1.77804 1.957921,1.500071 2.923891,1.941859 -0.95621,-0.105648 -2.021711,-0.155048 -2.975801,-0.61627 -1.32188,0.764352 -2.118,0.450871 -3.17089,0.616712 z"
       id="path1707-59"
       sodipodi:nodetypes="ccccc" />
    <path
       style="fill:#636363;fill-opacity:0.536309;stroke:none;stroke-width:0.264583px;stroke-linecap:butt;stroke-linejoin:miter;stroke-opacity:1"
       d="m 99.312921,96.142543 c 2.247559,-0.246131 3.478849,-0.82696 3.222799,-1.942301 0.72973,1.778051 1.95792,1.500082 2.92389,1.941865 -0.95621,-0.105654 -2.02171,-0.155054 -2.9758,-0.616263 -1.32188,0.76435 -2.118,0.450872 -3.170889,0.616699 z"
       id="path1707-7-4"
       sodipodi:nodetypes="ccccc" />
    <path
       style="fill:#636363;fill-opacity:0.536309;stroke:none;stroke-width:0.264583px;stroke-linecap:butt;stroke-linejoin:miter;stroke-opacity:1"
       d="m 78.141412,69.006054 c 2.247559,-0.246131 3.478851,-0.82696 3.2228,-1.94229 0.729729,1.77804 1.957919,1.500068 2.923889,1.941848 -0.956209,-0.105648 -2.02171,-0.155038 -2.9758,-0.616259 -1.32188,0.764349 -2.118,0.450871 -3.170889,0.616701 z"
       id="path1707-5-9"
       sodipodi:nodetypes="ccccc" />
    <path
       style="fill:#636363;fill-opacity:0.536309;stroke:none;stroke-width:0.264583px;stroke-linecap:butt;stroke-linejoin:miter;stroke-opacity:1"
       d="m 93.201562,112.82259 c 2.247559,-0.24614 3.47885,-0.82697 3.2228,-1.9423 0.729728,1.77804 1.957919,1.50008 2.923889,1.94186 -0.95621,-0.10565 -2.021711,-0.15504 -2.975801,-0.61626 -1.321879,0.76435 -2.117997,0.45086 -3.170888,0.6167 z"
       id="path1707-2-9"
       sodipodi:nodetypes="ccccc" />
  </g>
</svg>
